<?xml version="1.0" standalone="no"?>
<!DOCTYPE svg PUBLIC "-//W3C//DTD SVG 20010904//EN"
 "http://www.w3.org/TR/2001/REC-SVG-20010904/DTD/svg10.dtd">
<svg version="1.0" xmlns="http://www.w3.org/2000/svg"
 width="261.000000pt" height="261.000000pt" viewBox="0 0 261.000000 261.000000"
 preserveAspectRatio="xMidYMid meet">
<metadata>
Created by potrace 1.14, written by Peter Selinger 2001-2017
</metadata>
<g transform="translate(0.000000,261.000000) scale(0.100000,-0.100000)"
fill="#000000" stroke="none">
<path d="M2569 2592 c-14 -9 -200 -129 -413 -267 -212 -137 -489 -316 -613
-397 -125 -80 -229 -150 -230 -155 -2 -4 43 -37 99 -73 56 -36 134 -86 172
-111 39 -25 105 -68 146 -95 41 -27 80 -51 85 -54 6 -3 44 -27 85 -54 41 -27
152 -98 245 -159 94 -61 228 -148 299 -194 70 -47 134 -87 141 -89 10 -4 12
164 12 830 0 460 0 836 -1 835 0 0 -13 -8 -27 -17z"/>
<path d="M5 1770 c0 -634 3 -829 12 -826 6 3 67 41 135 85 68 44 198 129 291
188 92 59 322 209 512 332 l346 223 -43 28 c-24 15 -143 92 -266 171 -122 79
-391 253 -597 387 -206 133 -378 242 -382 242 -5 0 -8 -374 -8 -830z"/>
<path d="M1255 1661 c-60 -40 -602 -393 -639 -416 -18 -11 -74 -47 -124 -80
-51 -33 -181 -118 -289 -189 -165 -108 -194 -130 -181 -140 9 -6 80 -51 158
-101 77 -49 175 -113 218 -140 42 -28 190 -122 327 -210 138 -87 271 -174 297
-192 26 -18 50 -33 53 -33 3 0 31 -17 63 -39 31 -21 82 -54 112 -73 l56 -35
71 46 c499 325 885 576 1021 664 92 60 173 114 180 122 12 10 -1 22 -71 66
-47 30 -193 123 -324 207 -131 85 -346 223 -478 308 -132 84 -247 158 -255
164 -16 11 -129 82 -145 92 -6 4 -28 -6 -50 -21z"/>
</g>
</svg>
