<svg width="27" height="28" viewBox="0 0 27 28" fill="none" xmlns="http://www.w3.org/2000/svg">
<path fill-rule="evenodd" clip-rule="evenodd" d="M11.2694 23.3375C11.2752 23.4809 11.2604 23.6208 11.2312 23.7623C11.1801 24.011 11.0813 24.2742 10.9415 24.5175C10.5442 25.2087 9.86911 25.67 9 25.67C6.95261 25.67 6.14907 24.6284 5.14296 22.02C4.46157 20.2534 4.14011 19.8367 3.375 19.8367V17.5034C5.42239 17.5034 6.22593 18.5451 7.23204 21.1534C7.91343 22.9201 8.23489 23.3367 9 23.3367C9 22.9983 8.99553 22.6983 8.98612 22.2923C8.96407 21.3405 8.96154 21.1462 9.00157 20.8917C9.01757 20.3363 9.15586 19.9422 9.43313 19.5511C6.92234 18.9842 5.22891 17.8137 4.25697 15.915L3.89288 15.027C3.53818 13.9699 3.375 12.7721 3.375 11.3888C3.375 9.79564 3.84339 8.37116 4.71827 7.18044C4.44536 6.04861 4.48273 4.66575 5.08535 3.10403L5.28226 2.59373L5.78708 2.42626C5.85467 2.40384 5.93683 2.3836 6.03336 2.36788C7.01635 2.20789 8.41511 2.58962 10.2437 3.80431C11.3218 3.54517 12.4569 3.41432 13.5999 3.41432C14.6212 3.41432 15.6369 3.52111 16.6068 3.73162C18.386 2.57624 19.7462 2.21386 20.7028 2.36808C20.7982 2.38347 20.8795 2.40334 20.9466 2.42538L21.4545 2.59243L21.6518 3.10585C22.1789 4.47871 22.2694 5.74391 22.0776 6.851C23.0833 8.10249 23.625 9.64107 23.625 11.3888C23.625 12.8623 23.5232 13.9701 23.2306 15.048L22.9218 15.927C22.1133 17.8236 20.3304 19.0073 17.5809 19.5711C17.8668 19.9815 18 20.398 18 21.0034V22.17C18 22.7354 18 22.7529 17.9988 23.3367C18.0014 23.3787 18.0047 23.3992 18.0083 23.412C18.0074 23.4123 18 25.67 18 25.67C17.0417 25.67 16.3293 25.1854 15.9788 24.421C15.7971 24.0246 15.7428 23.6461 15.75 23.3201V21.0034C15.75 20.9056 15.7467 20.8999 15.517 20.6617C14.903 20.0249 14.625 19.5445 14.625 18.67V17.6147L15.6376 17.5092C18.6517 17.1954 20.2911 16.3273 20.8347 15.0591L21.0887 14.339C21.2907 13.5861 21.375 12.6692 21.375 11.3888C21.375 10.0284 20.917 8.90454 20.0509 8.00666L19.5748 7.51314L19.7691 6.84478C19.9417 6.251 19.9827 5.54841 19.8001 4.74704C19.7697 4.75501 19.7382 4.7637 19.7055 4.77315C19.1031 4.94707 18.351 5.32024 17.4447 5.94846L17.0314 6.235L16.5489 6.1109C15.6154 5.87089 14.6125 5.74766 13.5999 5.74766C12.4739 5.74766 11.3608 5.89623 10.3325 6.18694L9.83071 6.32881L9.40142 6.02426C8.46408 5.35927 7.68538 4.96382 7.06097 4.77909C7.01638 4.7659 6.97392 4.75409 6.93355 4.74357C6.71571 5.67105 6.80187 6.43306 7.02251 7.00485L7.28705 7.69044L6.80275 8.23178C6.03101 9.09439 5.625 10.1441 5.625 11.3888C5.625 12.5284 5.75363 13.4727 5.98937 14.1839L6.28377 14.9066C7.01971 16.3387 8.58285 17.2003 11.3699 17.51L12.375 17.6218V18.67C12.375 19.5445 12.097 20.0249 11.483 20.6617C11.2533 20.8999 11.25 20.9056 11.25 21.0034L11.2306 21.2191C11.2178 21.2898 11.2178 21.4725 11.2355 22.2362C11.2436 22.5875 11.2482 22.8655 11.2496 23.156C11.2631 23.2162 11.2651 23.2549 11.2694 23.3375Z" fill="black"/>
</svg>
