<svg width="24" height="24" viewBox="0 0 24 24" fill="none" xmlns="http://www.w3.org/2000/svg">
<path d="M1.3871 8.31195V7.31195C1.12112 7.31195 0.8661 7.41791 0.678439 7.6064C0.490778 7.79489 0.385938 8.05037 0.387106 8.31635L1.3871 8.31195ZM1.45161 23L0.451623 23.0044C0.454041 23.555 0.901043 24 1.45161 24V23ZM5.96774 23V24C6.52003 24 6.96774 23.5523 6.96774 23H5.96774ZM5.96774 8.31195H6.96774C6.96774 7.75967 6.52003 7.31195 5.96774 7.31195V8.31195ZM9 8.31195V7.31195C8.45285 7.31195 8.0073 7.75168 8.00009 8.29878L9 8.31195ZM8.80645 23L7.80654 22.9868C7.80301 23.2543 7.9068 23.512 8.0947 23.7024C8.2826 23.8928 8.53895 24 8.80645 24V23ZM13.1935 23V24C13.7458 24 14.1935 23.5523 14.1935 23H13.1935ZM18.4839 23H17.4839C17.4839 23.5523 17.9316 24 18.4839 24V23ZM23 23V24C23.5523 24 24 23.5523 24 23H23ZM13.1935 10.3003H12.1935C12.1935 10.748 12.4911 11.1412 12.9221 11.2627C13.353 11.3843 13.8122 11.2046 14.0461 10.8229L13.1935 10.3003ZM13.1935 8.31195H14.1935C14.1935 7.75967 13.7458 7.31195 13.1935 7.31195V8.31195ZM3.70968 5.45189C3.15064 5.45189 2.73912 5.25683 2.46676 4.97688C2.19169 4.69415 2 4.26394 2 3.69388H0C0 4.72731 0.356693 5.67612 1.03324 6.37152C1.71249 7.0697 2.65581 7.45189 3.70968 7.45189V5.45189ZM2 3.69388C2 3.12567 2.19028 2.71445 2.45301 2.44875C2.71544 2.18335 3.11223 2 3.64516 2V0C2.6297 0 1.70392 0.361844 1.03086 1.04251C0.358108 1.72287 0 2.65859 0 3.69388H2ZM3.64516 2C4.67803 2 5.41935 2.74287 5.41935 3.69388H7.41935C7.41935 1.56617 5.70906 0 3.64516 0V2ZM5.41935 3.69388C5.41935 4.72263 4.72952 5.45189 3.70968 5.45189V7.45189C5.91565 7.45189 7.41935 5.74384 7.41935 3.69388H5.41935ZM0.387106 8.31635L0.451623 23.0044L2.4516 22.9956L2.38709 8.30756L0.387106 8.31635ZM1.45161 24H5.96774V22H1.45161V24ZM6.96774 23V8.31195H4.96774V23H6.96774ZM5.96774 7.31195H1.3871V9.31195H5.96774V7.31195ZM8.00009 8.29878L7.80654 22.9868L9.80637 23.0132L9.99991 8.32513L8.00009 8.29878ZM8.80645 24H13.1935V22H8.80645V24ZM13.1935 23C14.1935 23 14.1935 23 14.1935 22.9999C14.1935 22.9999 14.1935 22.9999 14.1935 22.9998C14.1935 22.9997 14.1935 22.9996 14.1935 22.9995C14.1935 22.9994 14.1935 22.9993 14.1935 22.9991C14.1935 22.999 14.1935 22.9988 14.1935 22.9986C14.1935 22.9984 14.1935 22.9982 14.1935 22.998C14.1935 22.9978 14.1935 22.9975 14.1935 22.9973C14.1935 22.997 14.1935 22.9967 14.1935 22.9965C14.1935 22.9962 14.1935 22.9958 14.1935 22.9955C14.1935 22.9952 14.1935 22.9948 14.1935 22.9945C14.1935 22.9941 14.1935 22.9937 14.1935 22.9933C14.1935 22.9929 14.1935 22.9925 14.1935 22.992C14.1935 22.9916 14.1935 22.9911 14.1935 22.9907C14.1935 22.9902 14.1935 22.9897 14.1935 22.9892C14.1935 22.9887 14.1935 22.9881 14.1935 22.9876C14.1935 22.9871 14.1935 22.9865 14.1935 22.9859C14.1935 22.9853 14.1935 22.9847 14.1935 22.9841C14.1935 22.9835 14.1935 22.9828 14.1935 22.9822C14.1935 22.9815 14.1935 22.9809 14.1935 22.9802C14.1935 22.9795 14.1935 22.9788 14.1935 22.9781C14.1935 22.9773 14.1935 22.9766 14.1935 22.9758C14.1935 22.9751 14.1935 22.9743 14.1935 22.9735C14.1935 22.9727 14.1935 22.9719 14.1935 22.971C14.1935 22.9702 14.1935 22.9694 14.1935 22.9685C14.1935 22.9676 14.1935 22.9668 14.1935 22.9659C14.1935 22.9649 14.1935 22.964 14.1935 22.9631C14.1935 22.9622 14.1935 22.9612 14.1935 22.9602C14.1935 22.9593 14.1935 22.9583 14.1935 22.9573C14.1935 22.9563 14.1935 22.9552 14.1935 22.9542C14.1935 22.9532 14.1935 22.9521 14.1935 22.951C14.1935 22.95 14.1935 22.9489 14.1935 22.9478C14.1935 22.9466 14.1935 22.9455 14.1935 22.9444C14.1935 22.9432 14.1935 22.9421 14.1935 22.9409C14.1935 22.9397 14.1935 22.9385 14.1935 22.9373C14.1935 22.9361 14.1935 22.9349 14.1935 22.9336C14.1935 22.9324 14.1935 22.9311 14.1935 22.9298C14.1935 22.9286 14.1935 22.9273 14.1935 22.926C14.1935 22.9246 14.1935 22.9233 14.1935 22.922C14.1935 22.9206 14.1935 22.9193 14.1935 22.9179C14.1935 22.9165 14.1935 22.9151 14.1935 22.9137C14.1935 22.9123 14.1935 22.9108 14.1935 22.9094C14.1935 22.9079 14.1935 22.9065 14.1935 22.905C14.1935 22.9035 14.1935 22.902 14.1935 22.9005C14.1935 22.899 14.1935 22.8975 14.1935 22.8959C14.1935 22.8944 14.1935 22.8928 14.1935 22.8912C14.1935 22.8896 14.1935 22.888 14.1935 22.8864C14.1935 22.8848 14.1935 22.8832 14.1935 22.8815C14.1935 22.8799 14.1935 22.8782 14.1935 22.8765C14.1935 22.8749 14.1935 22.8732 14.1935 22.8715C14.1935 22.8697 14.1935 22.868 14.1935 22.8663C14.1935 22.8645 14.1935 22.8628 14.1935 22.861C14.1935 22.8592 14.1935 22.8574 14.1935 22.8556C14.1935 22.8538 14.1935 22.852 14.1935 22.8501C14.1935 22.8483 14.1935 22.8464 14.1935 22.8446C14.1935 22.8427 14.1935 22.8408 14.1935 22.8389C14.1935 22.837 14.1935 22.8351 14.1935 22.8331C14.1935 22.8312 14.1935 22.8292 14.1935 22.8272C14.1935 22.8253 14.1935 22.8233 14.1935 22.8213C14.1935 22.8193 14.1935 22.8173 14.1935 22.8152C14.1935 22.8132 14.1935 22.8111 14.1935 22.8091C14.1935 22.807 14.1935 22.8049 14.1935 22.8028C14.1935 22.8007 14.1935 22.7986 14.1935 22.7965C14.1935 22.7944 14.1935 22.7922 14.1935 22.7901C14.1935 22.7879 14.1935 22.7857 14.1935 22.7835C14.1935 22.7813 14.1935 22.7791 14.1935 22.7769C14.1935 22.7747 14.1935 22.7724 14.1935 22.7702C14.1935 22.7679 14.1935 22.7657 14.1935 22.7634C14.1935 22.7611 14.1935 22.7588 14.1935 22.7565C14.1935 22.7542 14.1935 22.7518 14.1935 22.7495C14.1935 22.7471 14.1935 22.7448 14.1935 22.7424C14.1935 22.74 14.1935 22.7376 14.1935 22.7352C14.1935 22.7328 14.1935 22.7304 14.1935 22.7279C14.1935 22.7255 14.1935 22.723 14.1935 22.7206C14.1935 22.7181 14.1935 22.7156 14.1935 22.7131C14.1935 22.7106 14.1935 22.7081 14.1935 22.7056C14.1935 22.703 14.1935 22.7005 14.1935 22.6979C14.1935 22.6954 14.1935 22.6928 14.1935 22.6902C14.1935 22.6876 14.1935 22.685 14.1935 22.6824C14.1935 22.6797 14.1935 22.6771 14.1935 22.6745C14.1935 22.6718 14.1935 22.6691 14.1935 22.6665C14.1935 22.6638 14.1935 22.6611 14.1935 22.6584C14.1935 22.6557 14.1935 22.6529 14.1935 22.6502C14.1935 22.6474 14.1935 22.6447 14.1935 22.6419C14.1935 22.6392 14.1935 22.6364 14.1935 22.6336C14.1935 22.6308 14.1935 22.628 14.1935 22.6251C14.1935 22.6223 14.1935 22.6194 14.1935 22.6166C14.1935 22.6137 14.1935 22.6109 14.1935 22.608C14.1935 22.6051 14.1935 22.6022 14.1935 22.5993C14.1935 22.5963 14.1935 22.5934 14.1935 22.5905C14.1935 22.5875 14.1935 22.5846 14.1935 22.5816C14.1935 22.5786 14.1935 22.5756 14.1935 22.5726C14.1935 22.5696 14.1935 22.5666 14.1935 22.5636C14.1935 22.5605 14.1935 22.5575 14.1935 22.5544C14.1935 22.5513 14.1935 22.5483 14.1935 22.5452C14.1935 22.5421 14.1935 22.539 14.1935 22.5359C14.1935 22.5327 14.1935 22.5296 14.1935 22.5265C14.1935 22.5233 14.1935 22.5202 14.1935 22.517C14.1935 22.5138 14.1935 22.5106 14.1935 22.5074C14.1935 22.5042 14.1935 22.501 14.1935 22.4978C14.1935 22.4945 14.1935 22.4913 14.1935 22.488C14.1935 22.4848 14.1935 22.4815 14.1935 22.4782C14.1935 22.4749 14.1935 22.4716 14.1935 22.4683C14.1935 22.465 14.1935 22.4616 14.1935 22.4583C14.1935 22.455 14.1935 22.4516 14.1935 22.4482C14.1935 22.4449 14.1935 22.4415 14.1935 22.4381C14.1935 22.4347 14.1935 22.4313 14.1935 22.4278C14.1935 22.4244 14.1935 22.421 14.1935 22.4175C14.1935 22.4141 14.1935 22.4106 14.1935 22.4071C14.1935 22.4036 14.1935 22.4001 14.1935 22.3966C14.1935 22.3931 14.1935 22.3896 14.1935 22.3861C14.1935 22.3825 14.1935 22.379 14.1935 22.3754C14.1935 22.3718 14.1935 22.3683 14.1935 22.3647C14.1935 22.3611 14.1935 22.3575 14.1935 22.3539C14.1935 22.3502 14.1935 22.3466 14.1935 22.343C14.1935 22.3393 14.1935 22.3357 14.1935 22.332C14.1935 22.3283 14.1935 22.3247 14.1935 22.321C14.1935 22.3173 14.1935 22.3135 14.1935 22.3098C14.1935 22.3061 14.1935 22.3024 14.1935 22.2986C14.1935 22.2949 14.1935 22.2911 14.1935 22.2873C14.1935 22.2836 14.1935 22.2798 14.1935 22.276C14.1935 22.2722 14.1935 22.2683 14.1935 22.2645C14.1935 22.2607 14.1935 22.2568 14.1935 22.253C14.1935 22.2491 14.1935 22.2453 14.1935 22.2414C14.1935 22.2375 14.1935 22.2336 14.1935 22.2297C14.1935 22.2258 14.1935 22.2219 14.1935 22.2179C14.1935 22.214 14.1935 22.2101 14.1935 22.2061C14.1935 22.2022 14.1935 22.1982 14.1935 22.1942C14.1935 22.1902 14.1935 22.1862 14.1935 22.1822C14.1935 22.1782 14.1935 22.1742 14.1935 22.1702C14.1935 22.1661 14.1935 22.1621 14.1935 22.158C14.1935 22.154 14.1935 22.1499 14.1935 22.1458C14.1935 22.1417 14.1935 22.1376 14.1935 22.1335C14.1935 22.1294 14.1935 22.1253 14.1935 22.1211C14.1935 22.117 14.1935 22.1129 14.1935 22.1087C14.1935 22.1045 14.1935 22.1004 14.1935 22.0962C14.1935 22.092 14.1935 22.0878 14.1935 22.0836C14.1935 22.0794 14.1935 22.0752 14.1935 22.0709C14.1935 22.0667 14.1935 22.0624 14.1935 22.0582C14.1935 22.0539 14.1935 22.0497 14.1935 22.0454C14.1935 22.0411 14.1935 22.0368 14.1935 22.0325C14.1935 22.0282 14.1935 22.0239 14.1935 22.0195C14.1935 22.0152 14.1935 22.0108 14.1935 22.0065C14.1935 22.0021 14.1935 21.9978 14.1935 21.9934C14.1935 21.989 14.1935 21.9846 14.1935 21.9802C14.1935 21.9758 14.1935 21.9714 14.1935 21.967C14.1935 21.9625 14.1935 21.9581 14.1935 21.9536C14.1935 21.9492 14.1935 21.9447 14.1935 21.9403C14.1935 21.9358 14.1935 21.9313 14.1935 21.9268C14.1935 21.9223 14.1935 21.9178 14.1935 21.9133C14.1935 21.9087 14.1935 21.9042 14.1935 21.8997C14.1935 21.8951 14.1935 21.8905 14.1935 21.886C14.1935 21.8814 14.1935 21.8768 14.1935 21.8722C14.1935 21.8676 14.1935 21.863 14.1935 21.8584C14.1935 21.8538 14.1935 21.8492 14.1935 21.8445C14.1935 21.8399 14.1935 21.8352 14.1935 21.8306C14.1935 21.8259 14.1935 21.8212 14.1935 21.8166C14.1935 21.8119 14.1935 21.8072 14.1935 21.8025C14.1935 21.7978 14.1935 21.793 14.1935 21.7883C14.1935 21.7836 14.1935 21.7788 14.1935 21.7741C14.1935 21.7693 14.1935 21.7646 14.1935 21.7598C14.1935 21.755 14.1935 21.7502 14.1935 21.7454C14.1935 21.7406 14.1935 21.7358 14.1935 21.731C14.1935 21.7262 14.1935 21.7213 14.1935 21.7165C14.1935 21.7117 14.1935 21.7068 14.1935 21.7019C14.1935 21.6971 14.1935 21.6922 14.1935 21.6873C14.1935 21.6824 14.1935 21.6775 14.1935 21.6726C14.1935 21.6677 14.1935 21.6628 14.1935 21.6579C14.1935 21.6529 14.1935 21.648 14.1935 21.643C14.1935 21.6381 14.1935 21.6331 14.1935 21.6281C14.1935 21.6232 14.1935 21.6182 14.1935 21.6132C14.1935 21.6082 14.1935 21.6032 14.1935 21.5982C14.1935 21.5931 14.1935 21.5881 14.1935 21.5831C14.1935 21.578 14.1935 21.573 14.1935 21.5679C14.1935 21.5629 14.1935 21.5578 14.1935 21.5527C14.1935 21.5476 14.1935 21.5425 14.1935 21.5374C14.1935 21.5323 14.1935 21.5272 14.1935 21.5221C14.1935 21.517 14.1935 21.5118 14.1935 21.5067C14.1935 21.5015 14.1935 21.4964 14.1935 21.4912C14.1935 21.486 14.1935 21.4809 14.1935 21.4757C14.1935 21.4705 14.1935 21.4653 14.1935 21.4601C14.1935 21.4549 14.1935 21.4497 14.1935 21.4444C14.1935 21.4392 14.1935 21.434 14.1935 21.4287C14.1935 21.4235 14.1935 21.4182 14.1935 21.4129C14.1935 21.4077 14.1935 21.4024 14.1935 21.3971C14.1935 21.3918 14.1935 21.3865 14.1935 21.3812C14.1935 21.3759 14.1935 21.3706 14.1935 21.3652C14.1935 21.3599 14.1935 21.3546 14.1935 21.3492C14.1935 21.3439 14.1935 21.3385 14.1935 21.3331C14.1935 21.3278 14.1935 21.3224 14.1935 21.317C14.1935 21.3116 14.1935 21.3062 14.1935 21.3008C14.1935 21.2954 14.1935 21.29 14.1935 21.2845C14.1935 21.2791 14.1935 21.2737 14.1935 21.2682C14.1935 21.2628 14.1935 21.2573 14.1935 21.2518C14.1935 21.2464 14.1935 21.2409 14.1935 21.2354C14.1935 21.2299 14.1935 21.2244 14.1935 21.2189C14.1935 21.2134 14.1935 21.2079 14.1935 21.2024C14.1935 21.1968 14.1935 21.1913 14.1935 21.1858C14.1935 21.1802 14.1935 21.1747 14.1935 21.1691C14.1935 21.1635 14.1935 21.1579 14.1935 21.1524C14.1935 21.1468 14.1935 21.1412 14.1935 21.1356C14.1935 21.13 14.1935 21.1244 14.1935 21.1187C14.1935 21.1131 14.1935 21.1075 14.1935 21.1018C14.1935 21.0962 14.1935 21.0906 14.1935 21.0849C14.1935 21.0792 14.1935 21.0736 14.1935 21.0679C14.1935 21.0622 14.1935 21.0565 14.1935 21.0508C14.1935 21.0451 14.1935 21.0394 14.1935 21.0337C14.1935 21.028 14.1935 21.0223 14.1935 21.0165C14.1935 21.0108 14.1935 21.0051 14.1935 20.9993C14.1935 20.9936 14.1935 20.9878 14.1935 20.982C14.1935 20.9763 14.1935 20.9705 14.1935 20.9647C14.1935 20.9589 14.1935 20.9531 14.1935 20.9473C14.1935 20.9415 14.1935 20.9357 14.1935 20.9299C14.1935 20.9241 14.1935 20.9182 14.1935 20.9124C14.1935 20.9065 14.1935 20.9007 14.1935 20.8948C14.1935 20.889 14.1935 20.8831 14.1935 20.8772C14.1935 20.8714 14.1935 20.8655 14.1935 20.8596C14.1935 20.8537 14.1935 20.8478 14.1935 20.8419C14.1935 20.836 14.1935 20.8301 14.1935 20.8241C14.1935 20.8182 14.1935 20.8123 14.1935 20.8063C14.1935 20.8004 14.1935 20.7944 14.1935 20.7885C14.1935 20.7825 14.1935 20.7765 14.1935 20.7705C14.1935 20.7646 14.1935 20.7586 14.1935 20.7526C14.1935 20.7466 14.1935 20.7406 14.1935 20.7346C14.1935 20.7286 14.1935 20.7225 14.1935 20.7165C14.1935 20.7105 14.1935 20.7045 14.1935 20.6984C14.1935 20.6924 14.1935 20.6863 14.1935 20.6802C14.1935 20.6742 14.1935 20.6681 14.1935 20.662C14.1935 20.656 14.1935 20.6499 14.1935 20.6438C14.1935 20.6377 14.1935 20.6316 14.1935 20.6255C14.1935 20.6194 14.1935 20.6132 14.1935 20.6071C14.1935 20.601 14.1935 20.5948 14.1935 20.5887C14.1935 20.5826 14.1935 20.5764 14.1935 20.5703C14.1935 20.5641 14.1935 20.5579 14.1935 20.5518C14.1935 20.5456 14.1935 20.5394 14.1935 20.5332C14.1935 20.527 14.1935 20.5208 14.1935 20.5146C14.1935 20.5084 14.1935 20.5022 14.1935 20.496C14.1935 20.4897 14.1935 20.4835 14.1935 20.4773C14.1935 20.471 14.1935 20.4648 14.1935 20.4585C14.1935 20.4523 14.1935 20.446 14.1935 20.4398C14.1935 20.4335 14.1935 20.4272 14.1935 20.4209C14.1935 20.4147 14.1935 20.4084 14.1935 20.4021C14.1935 20.3958 14.1935 20.3895 14.1935 20.3831C14.1935 20.3768 14.1935 20.3705 14.1935 20.3642C14.1935 20.3579 14.1935 20.3515 14.1935 20.3452C14.1935 20.3388 14.1935 20.3325 14.1935 20.3261C14.1935 20.3198 14.1935 20.3134 14.1935 20.307C14.1935 20.3007 14.1935 20.2943 14.1935 20.2879C14.1935 20.2815 14.1935 20.2751 14.1935 20.2687C14.1935 20.2623 14.1935 20.2559 14.1935 20.2495C14.1935 20.2431 14.1935 20.2366 14.1935 20.2302C14.1935 20.2238 14.1935 20.2173 14.1935 20.2109C14.1935 20.2045 14.1935 20.198 14.1935 20.1915C14.1935 20.1851 14.1935 20.1786 14.1935 20.1721C14.1935 20.1657 14.1935 20.1592 14.1935 20.1527C14.1935 20.1462 14.1935 20.1397 14.1935 20.1332C14.1935 20.1267 14.1935 20.1202 14.1935 20.1137C14.1935 20.1072 14.1935 20.1007 14.1935 20.0941C14.1935 20.0876 14.1935 20.0811 14.1935 20.0745C14.1935 20.068 14.1935 20.0614 14.1935 20.0549C14.1935 20.0483 14.1935 20.0418 14.1935 20.0352C14.1935 20.0286 14.1935 20.0221 14.1935 20.0155C14.1935 20.0089 14.1935 20.0023 14.1935 19.9957C14.1935 19.9891 14.1935 19.9825 14.1935 19.9759C14.1935 19.9693 14.1935 19.9627 14.1935 19.9561C14.1935 19.9494 14.1935 19.9428 14.1935 19.9362C14.1935 19.9296 14.1935 19.9229 14.1935 19.9163C14.1935 19.9096 14.1935 19.903 14.1935 19.8963C14.1935 19.8896 14.1935 19.883 14.1935 19.8763C14.1935 19.8696 14.1935 19.863 14.1935 19.8563C14.1935 19.8496 14.1935 19.8429 14.1935 19.8362C14.1935 19.8295 14.1935 19.8228 14.1935 19.8161C14.1935 19.8094 14.1935 19.8027 14.1935 19.7959C14.1935 19.7892 14.1935 19.7825 14.1935 19.7758C14.1935 19.769 14.1935 19.7623 14.1935 19.7555C14.1935 19.7488 14.1935 19.742 14.1935 19.7353C14.1935 19.7285 14.1935 19.7218 14.1935 19.715C14.1935 19.7082 14.1935 19.7015 14.1935 19.6947C14.1935 19.6879 14.1935 19.6811 14.1935 19.6743C14.1935 19.6675 14.1935 19.6607 14.1935 19.6539C14.1935 19.6471 14.1935 19.6403 14.1935 19.6335C14.1935 19.6267 14.1935 19.6198 14.1935 19.613C14.1935 19.6062 14.1935 19.5993 14.1935 19.5925C14.1935 19.5857 14.1935 19.5788 14.1935 19.572C14.1935 19.5651 14.1935 19.5583 14.1935 19.5514C14.1935 19.5445 14.1935 19.5377 14.1935 19.5308C14.1935 19.5239 14.1935 19.517 14.1935 19.5102C14.1935 19.5033 14.1935 19.4964 14.1935 19.4895C14.1935 19.4826 14.1935 19.4757 14.1935 19.4688C14.1935 19.4619 14.1935 19.455 14.1935 19.4481C14.1935 19.4411 14.1935 19.4342 14.1935 19.4273C14.1935 19.4204 14.1935 19.4134 14.1935 19.4065C14.1935 19.3996 14.1935 19.3926 14.1935 19.3857C14.1935 19.3787 14.1935 19.3718 14.1935 19.3648C14.1935 19.3579 14.1935 19.3509 14.1935 19.3439C14.1935 19.337 14.1935 19.33 14.1935 19.323C14.1935 19.316 14.1935 19.309 14.1935 19.302C14.1935 19.2951 14.1935 19.2881 14.1935 19.2811C14.1935 19.2741 14.1935 19.2671 14.1935 19.2601C14.1935 19.253 14.1935 19.246 14.1935 19.239C14.1935 19.232 14.1935 19.225 14.1935 19.2179C14.1935 19.2109 14.1935 19.2039 14.1935 19.1968C14.1935 19.1898 14.1935 19.1828 14.1935 19.1757C14.1935 19.1687 14.1935 19.1616 14.1935 19.1546C14.1935 19.1475 14.1935 19.1404 14.1935 19.1334C14.1935 19.1263 14.1935 19.1192 14.1935 19.1122C14.1935 19.1051 14.1935 19.098 14.1935 19.0909C14.1935 19.0838 14.1935 19.0767 14.1935 19.0697C14.1935 19.0626 14.1935 19.0555 14.1935 19.0484C14.1935 19.0413 14.1935 19.0342 14.1935 19.027C14.1935 19.0199 14.1935 19.0128 14.1935 19.0057C14.1935 18.9986 14.1935 18.9914 14.1935 18.9843C14.1935 18.9772 14.1935 18.9701 14.1935 18.9629C14.1935 18.9558 14.1935 18.9486 14.1935 18.9415C14.1935 18.9343 14.1935 18.9272 14.1935 18.92C14.1935 18.9129 14.1935 18.9057 14.1935 18.8986C14.1935 18.8914 14.1935 18.8842 14.1935 18.8771C14.1935 18.8699 14.1935 18.8627 14.1935 18.8555C14.1935 18.8484 14.1935 18.8412 14.1935 18.834C14.1935 18.8268 14.1935 18.8196 14.1935 18.8124C14.1935 18.8052 14.1935 18.798 14.1935 18.7908C14.1935 18.7836 14.1935 18.7764 14.1935 18.7692C14.1935 18.762 14.1935 18.7548 14.1935 18.7475C14.1935 18.7403 14.1935 18.7331 14.1935 18.7259C14.1935 18.7187 14.1935 18.7114 14.1935 18.7042C14.1935 18.697 14.1935 18.6897 14.1935 18.6825C14.1935 18.6752 14.1935 18.668 14.1935 18.6607C14.1935 18.6535 14.1935 18.6462 14.1935 18.639C14.1935 18.6317 14.1935 18.6245 14.1935 18.6172C14.1935 18.6099 14.1935 18.6027 14.1935 18.5954C14.1935 18.5881 14.1935 18.5809 14.1935 18.5736C14.1935 18.5663 14.1935 18.559 14.1935 18.5518C14.1935 18.5445 14.1935 18.5372 14.1935 18.5299C14.1935 18.5226 14.1935 18.5153 14.1935 18.508C14.1935 18.5007 14.1935 18.4934 14.1935 18.4861C14.1935 18.4788 14.1935 18.4715 14.1935 18.4642C14.1935 18.4569 14.1935 18.4496 14.1935 18.4422C14.1935 18.4349 14.1935 18.4276 14.1935 18.4203C14.1935 18.413 14.1935 18.4056 14.1935 18.3983C14.1935 18.391 14.1935 18.3836 14.1935 18.3763C14.1935 18.369 14.1935 18.3616 14.1935 18.3543C14.1935 18.347 14.1935 18.3396 14.1935 18.3323C14.1935 18.3249 14.1935 18.3176 14.1935 18.3102C14.1935 18.3029 14.1935 18.2955 14.1935 18.2881C14.1935 18.2808 14.1935 18.2734 14.1935 18.2661C14.1935 18.2587 14.1935 18.2513 14.1935 18.244C14.1935 18.2366 14.1935 18.2292 14.1935 18.2218C14.1935 18.2145 14.1935 18.2071 14.1935 18.1997C14.1935 18.1923 14.1935 18.1849 14.1935 18.1775C14.1935 18.1702 14.1935 18.1628 14.1935 18.1554C14.1935 18.148 14.1935 18.1406 14.1935 18.1332C14.1935 18.1258 14.1935 18.1184 14.1935 18.111C14.1935 18.1036 14.1935 18.0962 14.1935 18.0888C14.1935 18.0814 14.1935 18.074 14.1935 18.0666C14.1935 18.0591 14.1935 18.0517 14.1935 18.0443C14.1935 18.0369 14.1935 18.0295 14.1935 18.0221C14.1935 18.0146 14.1935 18.0072 14.1935 17.9998C14.1935 17.9924 14.1935 17.9849 14.1935 17.9775C14.1935 17.9701 14.1935 17.9626 14.1935 17.9552C14.1935 17.9478 14.1935 17.9403 14.1935 17.9329C14.1935 17.9255 14.1935 17.918 14.1935 17.9106C14.1935 17.9031 14.1935 17.8957 14.1935 17.8882C14.1935 17.8808 14.1935 17.8733 14.1935 17.8659C14.1935 17.8584 14.1935 17.851 14.1935 17.8435C14.1935 17.8361 14.1935 17.8286 14.1935 17.8212C14.1935 17.8137 14.1935 17.8062 14.1935 17.7988C14.1935 17.7913 14.1935 17.7839 14.1935 17.7764C14.1935 17.7689 14.1935 17.7615 14.1935 17.754C14.1935 17.7465 14.1935 17.739 14.1935 17.7316C14.1935 17.7241 14.1935 17.7166 14.1935 17.7091C14.1935 17.7017 14.1935 17.6942 14.1935 17.6867C14.1935 17.6792 14.1935 17.6717 14.1935 17.6643C14.1935 17.6568 14.1935 17.6493 14.1935 17.6418C14.1935 17.6343 14.1935 17.6268 14.1935 17.6193C14.1935 17.6119 14.1935 17.6044 14.1935 17.5969C14.1935 17.5894 14.1935 17.5819 14.1935 17.5744C14.1935 17.5669 14.1935 17.5594 14.1935 17.5519C14.1935 17.5444 14.1935 17.5369 14.1935 17.5294C14.1935 17.5219 14.1935 17.5144 14.1935 17.5069C14.1935 17.4994 14.1935 17.4919 14.1935 17.4844C14.1935 17.4769 14.1935 17.4694 14.1935 17.4619C14.1935 17.4544 14.1935 17.4468 14.1935 17.4393C14.1935 17.4318 14.1935 17.4243 14.1935 17.4168C14.1935 17.4093 14.1935 17.4018 14.1935 17.3943C14.1935 17.3868 14.1935 17.3792 14.1935 17.3717C14.1935 17.3642 14.1935 17.3567 14.1935 17.3492C14.1935 17.3417 14.1935 17.3341 14.1935 17.3266C14.1935 17.3191 14.1935 17.3116 14.1935 17.304C14.1935 17.2965 14.1935 17.289 14.1935 17.2815C14.1935 17.274 14.1935 17.2664 14.1935 17.2589C14.1935 17.2514 14.1935 17.2439 14.1935 17.2363C14.1935 17.2288 14.1935 17.2213 14.1935 17.2137C14.1935 17.2062 14.1935 17.1987 14.1935 17.1912C14.1935 17.1836 14.1935 17.1761 14.1935 17.1686C14.1935 17.161 14.1935 17.1535 14.1935 17.146C14.1935 17.1384 14.1935 17.1309 14.1935 17.1234C14.1935 17.1159 14.1935 17.1083 14.1935 17.1008C14.1935 17.0933 14.1935 17.0857 14.1935 17.0782C14.1935 17.0707 14.1935 17.0631 14.1935 17.0556C14.1935 17.048 14.1935 17.0405 14.1935 17.033C14.1935 17.0254 14.1935 17.0179 14.1935 17.0104C14.1935 17.0028 14.1935 16.9953 14.1935 16.9878C14.1935 16.9802 14.1935 16.9727 14.1935 16.9651C14.1935 16.9576 14.1935 16.9501 14.1935 16.9425C14.1935 16.935 14.1935 16.9275 14.1935 16.9199C14.1935 16.9124 14.1935 16.9049 14.1935 16.8973C14.1935 16.8898 14.1935 16.8822 14.1935 16.8747C14.1935 16.8672 14.1935 16.8596 14.1935 16.8521C14.1935 16.8446 14.1935 16.837 14.1935 16.8295C14.1935 16.8219 14.1935 16.8144 14.1935 16.8069C14.1935 16.7993 14.1935 16.7918 14.1935 16.7843C14.1935 16.7767 14.1935 16.7692 14.1935 16.7617C14.1935 16.7541 14.1935 16.7466 14.1935 16.739C14.1935 16.7315 14.1935 16.724 14.1935 16.7164C14.1935 16.7089 14.1935 16.7014 14.1935 16.6938C14.1935 16.6863 14.1935 16.6788 14.1935 16.6712C14.1935 16.6637 14.1935 16.6562 14.1935 16.6486C14.1935 16.6411 14.1935 16.6336 14.1935 16.626C14.1935 16.6185 14.1935 16.611 14.1935 16.6035C14.1935 16.5959 14.1935 16.5884 14.1935 16.5809C14.1935 16.5733 14.1935 16.5658 14.1935 16.5583C14.1935 16.5508 14.1935 16.5432 14.1935 16.5357C14.1935 16.5282 14.1935 16.5207 14.1935 16.5131C14.1935 16.5056 14.1935 16.4981 14.1935 16.4906C14.1935 16.483 14.1935 16.4755 14.1935 16.468C14.1935 16.4605 14.1935 16.4529 14.1935 16.4454C14.1935 16.4379 14.1935 16.4304 14.1935 16.4229C14.1935 16.4154 14.1935 16.4078 14.1935 16.4003C14.1935 16.3928 14.1935 16.3853 14.1935 16.3778C14.1935 16.3703 14.1935 16.3628 14.1935 16.3552C14.1935 16.3477 14.1935 16.3402 14.1935 16.3327C14.1935 16.3252 14.1935 16.3177 14.1935 16.3102C14.1935 16.3027 14.1935 16.2952 14.1935 16.2877C14.1935 16.2802 14.1935 16.2727 14.1935 16.2652C14.1935 16.2577 14.1935 16.2502 14.1935 16.2427C14.1935 16.2352 14.1935 16.2277 14.1935 16.2202C14.1935 16.2127 14.1935 16.2052 14.1935 16.1977C14.1935 16.1902 14.1935 16.1827 14.1935 16.1752C14.1935 16.1677 14.1935 16.1602 14.1935 16.1527C14.1935 16.1452 14.1935 16.1377 14.1935 16.1303C14.1935 16.1228 14.1935 16.1153 14.1935 16.1078C14.1935 16.1003 14.1935 16.0929 14.1935 16.0854C14.1935 16.0779 14.1935 16.0704 14.1935 16.0629C14.1935 16.0555 14.1935 16.048 14.1935 16.0405C14.1935 16.033 14.1935 16.0256 14.1935 16.0181C14.1935 16.0106 14.1935 16.0032 14.1935 15.9957C14.1935 15.9882 14.1935 15.9808 14.1935 15.9733C14.1935 15.9659 14.1935 15.9584 14.1935 15.9509C14.1935 15.9435 14.1935 15.936 14.1935 15.9286C14.1935 15.9211 14.1935 15.9137 14.1935 15.9062C14.1935 15.8988 14.1935 15.8913 14.1935 15.8839C14.1935 15.8764 14.1935 15.869 14.1935 15.8615C14.1935 15.8541 14.1935 15.8467 14.1935 15.8392C14.1935 15.8318 14.1935 15.8244 14.1935 15.8169C14.1935 15.8095 14.1935 15.8021 14.1935 15.7946C14.1935 15.7872 14.1935 15.7798 14.1935 15.7723C14.1935 15.7649 14.1935 15.7575 14.1935 15.7501C14.1935 15.7427 14.1935 15.7352 14.1935 15.7278C14.1935 15.7204 14.1935 15.713 14.1935 15.7056C14.1935 15.6982 14.1935 15.6908 14.1935 15.6834C14.1935 15.676 14.1935 15.6686 14.1935 15.6612C14.1935 15.6538 14.1935 15.6464 14.1935 15.639C14.1935 15.6316 14.1935 15.6242 14.1935 15.6168C14.1935 15.6094 14.1935 15.602 14.1935 15.5946C14.1935 15.5872 14.1935 15.5799 14.1935 15.5725C14.1935 15.5651 14.1935 15.5577 14.1935 15.5504C14.1935 15.543 14.1935 15.5356 14.1935 15.5282C14.1935 15.5209 14.1935 15.5135 14.1935 15.5061C14.1935 15.4988 14.1935 15.4914 14.1935 15.4841C14.1935 15.4767 14.1935 15.4693 14.1935 15.462C14.1935 15.4546 14.1935 15.4473 14.1935 15.44C14.1935 15.4326 14.1935 15.4253 14.1935 15.4179C14.1935 15.4106 14.1935 15.4032 14.1935 15.3959C14.1935 15.3886 14.1935 15.3813 14.1935 15.3739C14.1935 15.3666 14.1935 15.3593 14.1935 15.352C14.1935 15.3446 14.1935 15.3373 14.1935 15.33C14.1935 15.3227 14.1935 15.3154 14.1935 15.3081C14.1935 15.3008 14.1935 15.2935 14.1935 15.2862C14.1935 15.2788 14.1935 15.2716 14.1935 15.2643C14.1935 15.257 14.1935 15.2497 14.1935 15.2424C14.1935 15.2351 14.1935 15.2278 14.1935 15.2205C14.1935 15.2132 14.1935 15.206 14.1935 15.1987C14.1935 15.1914 14.1935 15.1841 14.1935 15.1769C14.1935 15.1696 14.1935 15.1623 14.1935 15.1551C14.1935 15.1478 14.1935 15.1406 14.1935 15.1333C14.1935 15.1261 14.1935 15.1188 14.1935 15.1116C14.1935 15.1043 14.1935 15.0971 14.1935 15.0898C14.1935 15.0826 14.1935 15.0754 14.1935 15.0681C14.1935 15.0609 14.1935 15.0537 14.1935 15.0465C14.1935 15.0392 14.1935 15.032 14.1935 15.0248C14.1935 15.0176 14.1935 15.0104 14.1935 15.0032C14.1935 14.9959 14.1935 14.9887 14.1935 14.9815C14.1935 14.9743 14.1935 14.9671 14.1935 14.96C14.1935 14.9528 14.1935 14.9456 14.1935 14.9384C14.1935 14.9312 14.1935 14.924 14.1935 14.9168C14.1935 14.9097 14.1935 14.9025 14.1935 14.8953C14.1935 14.8882 14.1935 14.881 14.1935 14.8738C14.1935 14.8667 14.1935 14.8595 14.1935 14.8524C14.1935 14.8452 14.1935 14.8381 14.1935 14.8309C14.1935 14.8238 14.1935 14.8166 14.1935 14.8095C14.1935 14.8024 14.1935 14.7952 14.1935 14.7881C14.1935 14.781 14.1935 14.7739 14.1935 14.7667C14.1935 14.7596 14.1935 14.7525 14.1935 14.7454C14.1935 14.7383 14.1935 14.7312 14.1935 14.7241C14.1935 14.717 14.1935 14.7099 14.1935 14.7028C14.1935 14.6957 14.1935 14.6886 14.1935 14.6816C14.1935 14.6745 14.1935 14.6674 14.1935 14.6603C14.1935 14.6532 14.1935 14.6462 14.1935 14.6391C14.1935 14.6321 14.1935 14.625 14.1935 14.6179C14.1935 14.6109 14.1935 14.6038 14.1935 14.5968C14.1935 14.5898 14.1935 14.5827 14.1935 14.5757C14.1935 14.5686 14.1935 14.5616 14.1935 14.5546C14.1935 14.5476 14.1935 14.5405 14.1935 14.5335H12.1935C12.1935 14.5405 12.1935 14.5476 12.1935 14.5546C12.1935 14.5616 12.1935 14.5686 12.1935 14.5757C12.1935 14.5827 12.1935 14.5898 12.1935 14.5968C12.1935 14.6038 12.1935 14.6109 12.1935 14.6179C12.1935 14.625 12.1935 14.6321 12.1935 14.6391C12.1935 14.6462 12.1935 14.6532 12.1935 14.6603C12.1935 14.6674 12.1935 14.6745 12.1935 14.6816C12.1935 14.6886 12.1935 14.6957 12.1935 14.7028C12.1935 14.7099 12.1935 14.717 12.1935 14.7241C12.1935 14.7312 12.1935 14.7383 12.1935 14.7454C12.1935 14.7525 12.1935 14.7596 12.1935 14.7667C12.1935 14.7739 12.1935 14.781 12.1935 14.7881C12.1935 14.7952 12.1935 14.8024 12.1935 14.8095C12.1935 14.8166 12.1935 14.8238 12.1935 14.8309C12.1935 14.8381 12.1935 14.8452 12.1935 14.8524C12.1935 14.8595 12.1935 14.8667 12.1935 14.8738C12.1935 14.881 12.1935 14.8882 12.1935 14.8953C12.1935 14.9025 12.1935 14.9097 12.1935 14.9168C12.1935 14.924 12.1935 14.9312 12.1935 14.9384C12.1935 14.9456 12.1935 14.9528 12.1935 14.96C12.1935 14.9671 12.1935 14.9743 12.1935 14.9815C12.1935 14.9887 12.1935 14.9959 12.1935 15.0032C12.1935 15.0104 12.1935 15.0176 12.1935 15.0248C12.1935 15.032 12.1935 15.0392 12.1935 15.0465C12.1935 15.0537 12.1935 15.0609 12.1935 15.0681C12.1935 15.0754 12.1935 15.0826 12.1935 15.0898C12.1935 15.0971 12.1935 15.1043 12.1935 15.1116C12.1935 15.1188 12.1935 15.1261 12.1935 15.1333C12.1935 15.1406 12.1935 15.1478 12.1935 15.1551C12.1935 15.1623 12.1935 15.1696 12.1935 15.1769C12.1935 15.1841 12.1935 15.1914 12.1935 15.1987C12.1935 15.206 12.1935 15.2132 12.1935 15.2205C12.1935 15.2278 12.1935 15.2351 12.1935 15.2424C12.1935 15.2497 12.1935 15.257 12.1935 15.2643C12.1935 15.2716 12.1935 15.2788 12.1935 15.2862C12.1935 15.2935 12.1935 15.3008 12.1935 15.3081C12.1935 15.3154 12.1935 15.3227 12.1935 15.33C12.1935 15.3373 12.1935 15.3446 12.1935 15.352C12.1935 15.3593 12.1935 15.3666 12.1935 15.3739C12.1935 15.3813 12.1935 15.3886 12.1935 15.3959C12.1935 15.4032 12.1935 15.4106 12.1935 15.4179C12.1935 15.4253 12.1935 15.4326 12.1935 15.44C12.1935 15.4473 12.1935 15.4546 12.1935 15.462C12.1935 15.4693 12.1935 15.4767 12.1935 15.4841C12.1935 15.4914 12.1935 15.4988 12.1935 15.5061C12.1935 15.5135 12.1935 15.5209 12.1935 15.5282C12.1935 15.5356 12.1935 15.543 12.1935 15.5504C12.1935 15.5577 12.1935 15.5651 12.1935 15.5725C12.1935 15.5799 12.1935 15.5872 12.1935 15.5946C12.1935 15.602 12.1935 15.6094 12.1935 15.6168C12.1935 15.6242 12.1935 15.6316 12.1935 15.639C12.1935 15.6464 12.1935 15.6538 12.1935 15.6612C12.1935 15.6686 12.1935 15.676 12.1935 15.6834C12.1935 15.6908 12.1935 15.6982 12.1935 15.7056C12.1935 15.713 12.1935 15.7204 12.1935 15.7278C12.1935 15.7352 12.1935 15.7427 12.1935 15.7501C12.1935 15.7575 12.1935 15.7649 12.1935 15.7723C12.1935 15.7798 12.1935 15.7872 12.1935 15.7946C12.1935 15.8021 12.1935 15.8095 12.1935 15.8169C12.1935 15.8244 12.1935 15.8318 12.1935 15.8392C12.1935 15.8467 12.1935 15.8541 12.1935 15.8615C12.1935 15.869 12.1935 15.8764 12.1935 15.8839C12.1935 15.8913 12.1935 15.8988 12.1935 15.9062C12.1935 15.9137 12.1935 15.9211 12.1935 15.9286C12.1935 15.936 12.1935 15.9435 12.1935 15.9509C12.1935 15.9584 12.1935 15.9659 12.1935 15.9733C12.1935 15.9808 12.1935 15.9882 12.1935 15.9957C12.1935 16.0032 12.1935 16.0106 12.1935 16.0181C12.1935 16.0256 12.1935 16.033 12.1935 16.0405C12.1935 16.048 12.1935 16.0555 12.1935 16.0629C12.1935 16.0704 12.1935 16.0779 12.1935 16.0854C12.1935 16.0929 12.1935 16.1003 12.1935 16.1078C12.1935 16.1153 12.1935 16.1228 12.1935 16.1303C12.1935 16.1377 12.1935 16.1452 12.1935 16.1527C12.1935 16.1602 12.1935 16.1677 12.1935 16.1752C12.1935 16.1827 12.1935 16.1902 12.1935 16.1977C12.1935 16.2052 12.1935 16.2127 12.1935 16.2202C12.1935 16.2277 12.1935 16.2352 12.1935 16.2427C12.1935 16.2502 12.1935 16.2577 12.1935 16.2652C12.1935 16.2727 12.1935 16.2802 12.1935 16.2877C12.1935 16.2952 12.1935 16.3027 12.1935 16.3102C12.1935 16.3177 12.1935 16.3252 12.1935 16.3327C12.1935 16.3402 12.1935 16.3477 12.1935 16.3552C12.1935 16.3628 12.1935 16.3703 12.1935 16.3778C12.1935 16.3853 12.1935 16.3928 12.1935 16.4003C12.1935 16.4078 12.1935 16.4154 12.1935 16.4229C12.1935 16.4304 12.1935 16.4379 12.1935 16.4454C12.1935 16.4529 12.1935 16.4605 12.1935 16.468C12.1935 16.4755 12.1935 16.483 12.1935 16.4906C12.1935 16.4981 12.1935 16.5056 12.1935 16.5131C12.1935 16.5207 12.1935 16.5282 12.1935 16.5357C12.1935 16.5432 12.1935 16.5508 12.1935 16.5583C12.1935 16.5658 12.1935 16.5733 12.1935 16.5809C12.1935 16.5884 12.1935 16.5959 12.1935 16.6035C12.1935 16.611 12.1935 16.6185 12.1935 16.626C12.1935 16.6336 12.1935 16.6411 12.1935 16.6486C12.1935 16.6562 12.1935 16.6637 12.1935 16.6712C12.1935 16.6788 12.1935 16.6863 12.1935 16.6938C12.1935 16.7014 12.1935 16.7089 12.1935 16.7164C12.1935 16.724 12.1935 16.7315 12.1935 16.739C12.1935 16.7466 12.1935 16.7541 12.1935 16.7617C12.1935 16.7692 12.1935 16.7767 12.1935 16.7843C12.1935 16.7918 12.1935 16.7993 12.1935 16.8069C12.1935 16.8144 12.1935 16.8219 12.1935 16.8295C12.1935 16.837 12.1935 16.8446 12.1935 16.8521C12.1935 16.8596 12.1935 16.8672 12.1935 16.8747C12.1935 16.8822 12.1935 16.8898 12.1935 16.8973C12.1935 16.9049 12.1935 16.9124 12.1935 16.9199C12.1935 16.9275 12.1935 16.935 12.1935 16.9425C12.1935 16.9501 12.1935 16.9576 12.1935 16.9651C12.1935 16.9727 12.1935 16.9802 12.1935 16.9878C12.1935 16.9953 12.1935 17.0028 12.1935 17.0104C12.1935 17.0179 12.1935 17.0254 12.1935 17.033C12.1935 17.0405 12.1935 17.048 12.1935 17.0556C12.1935 17.0631 12.1935 17.0707 12.1935 17.0782C12.1935 17.0857 12.1935 17.0933 12.1935 17.1008C12.1935 17.1083 12.1935 17.1159 12.1935 17.1234C12.1935 17.1309 12.1935 17.1384 12.1935 17.146C12.1935 17.1535 12.1935 17.161 12.1935 17.1686C12.1935 17.1761 12.1935 17.1836 12.1935 17.1912C12.1935 17.1987 12.1935 17.2062 12.1935 17.2137C12.1935 17.2213 12.1935 17.2288 12.1935 17.2363C12.1935 17.2439 12.1935 17.2514 12.1935 17.2589C12.1935 17.2664 12.1935 17.274 12.1935 17.2815C12.1935 17.289 12.1935 17.2965 12.1935 17.304C12.1935 17.3116 12.1935 17.3191 12.1935 17.3266C12.1935 17.3341 12.1935 17.3417 12.1935 17.3492C12.1935 17.3567 12.1935 17.3642 12.1935 17.3717C12.1935 17.3792 12.1935 17.3868 12.1935 17.3943C12.1935 17.4018 12.1935 17.4093 12.1935 17.4168C12.1935 17.4243 12.1935 17.4318 12.1935 17.4393C12.1935 17.4468 12.1935 17.4544 12.1935 17.4619C12.1935 17.4694 12.1935 17.4769 12.1935 17.4844C12.1935 17.4919 12.1935 17.4994 12.1935 17.5069C12.1935 17.5144 12.1935 17.5219 12.1935 17.5294C12.1935 17.5369 12.1935 17.5444 12.1935 17.5519C12.1935 17.5594 12.1935 17.5669 12.1935 17.5744C12.1935 17.5819 12.1935 17.5894 12.1935 17.5969C12.1935 17.6044 12.1935 17.6119 12.1935 17.6193C12.1935 17.6268 12.1935 17.6343 12.1935 17.6418C12.1935 17.6493 12.1935 17.6568 12.1935 17.6643C12.1935 17.6717 12.1935 17.6792 12.1935 17.6867C12.1935 17.6942 12.1935 17.7017 12.1935 17.7091C12.1935 17.7166 12.1935 17.7241 12.1935 17.7316C12.1935 17.739 12.1935 17.7465 12.1935 17.754C12.1935 17.7615 12.1935 17.7689 12.1935 17.7764C12.1935 17.7839 12.1935 17.7913 12.1935 17.7988C12.1935 17.8062 12.1935 17.8137 12.1935 17.8212C12.1935 17.8286 12.1935 17.8361 12.1935 17.8435C12.1935 17.851 12.1935 17.8584 12.1935 17.8659C12.1935 17.8733 12.1935 17.8808 12.1935 17.8882C12.1935 17.8957 12.1935 17.9031 12.1935 17.9106C12.1935 17.918 12.1935 17.9255 12.1935 17.9329C12.1935 17.9403 12.1935 17.9478 12.1935 17.9552C12.1935 17.9626 12.1935 17.9701 12.1935 17.9775C12.1935 17.9849 12.1935 17.9924 12.1935 17.9998C12.1935 18.0072 12.1935 18.0146 12.1935 18.0221C12.1935 18.0295 12.1935 18.0369 12.1935 18.0443C12.1935 18.0517 12.1935 18.0591 12.1935 18.0666C12.1935 18.074 12.1935 18.0814 12.1935 18.0888C12.1935 18.0962 12.1935 18.1036 12.1935 18.111C12.1935 18.1184 12.1935 18.1258 12.1935 18.1332C12.1935 18.1406 12.1935 18.148 12.1935 18.1554C12.1935 18.1628 12.1935 18.1702 12.1935 18.1775C12.1935 18.1849 12.1935 18.1923 12.1935 18.1997C12.1935 18.2071 12.1935 18.2145 12.1935 18.2218C12.1935 18.2292 12.1935 18.2366 12.1935 18.244C12.1935 18.2513 12.1935 18.2587 12.1935 18.2661C12.1935 18.2734 12.1935 18.2808 12.1935 18.2881C12.1935 18.2955 12.1935 18.3029 12.1935 18.3102C12.1935 18.3176 12.1935 18.3249 12.1935 18.3323C12.1935 18.3396 12.1935 18.347 12.1935 18.3543C12.1935 18.3616 12.1935 18.369 12.1935 18.3763C12.1935 18.3836 12.1935 18.391 12.1935 18.3983C12.1935 18.4056 12.1935 18.413 12.1935 18.4203C12.1935 18.4276 12.1935 18.4349 12.1935 18.4422C12.1935 18.4496 12.1935 18.4569 12.1935 18.4642C12.1935 18.4715 12.1935 18.4788 12.1935 18.4861C12.1935 18.4934 12.1935 18.5007 12.1935 18.508C12.1935 18.5153 12.1935 18.5226 12.1935 18.5299C12.1935 18.5372 12.1935 18.5445 12.1935 18.5518C12.1935 18.559 12.1935 18.5663 12.1935 18.5736C12.1935 18.5809 12.1935 18.5881 12.1935 18.5954C12.1935 18.6027 12.1935 18.6099 12.1935 18.6172C12.1935 18.6245 12.1935 18.6317 12.1935 18.639C12.1935 18.6462 12.1935 18.6535 12.1935 18.6607C12.1935 18.668 12.1935 18.6752 12.1935 18.6825C12.1935 18.6897 12.1935 18.697 12.1935 18.7042C12.1935 18.7114 12.1935 18.7187 12.1935 18.7259C12.1935 18.7331 12.1935 18.7403 12.1935 18.7475C12.1935 18.7548 12.1935 18.762 12.1935 18.7692C12.1935 18.7764 12.1935 18.7836 12.1935 18.7908C12.1935 18.798 12.1935 18.8052 12.1935 18.8124C12.1935 18.8196 12.1935 18.8268 12.1935 18.834C12.1935 18.8412 12.1935 18.8484 12.1935 18.8555C12.1935 18.8627 12.1935 18.8699 12.1935 18.8771C12.1935 18.8842 12.1935 18.8914 12.1935 18.8986C12.1935 18.9057 12.1935 18.9129 12.1935 18.92C12.1935 18.9272 12.1935 18.9343 12.1935 18.9415C12.1935 18.9486 12.1935 18.9558 12.1935 18.9629C12.1935 18.9701 12.1935 18.9772 12.1935 18.9843C12.1935 18.9914 12.1935 18.9986 12.1935 19.0057C12.1935 19.0128 12.1935 19.0199 12.1935 19.027C12.1935 19.0342 12.1935 19.0413 12.1935 19.0484C12.1935 19.0555 12.1935 19.0626 12.1935 19.0697C12.1935 19.0767 12.1935 19.0838 12.1935 19.0909C12.1935 19.098 12.1935 19.1051 12.1935 19.1122C12.1935 19.1192 12.1935 19.1263 12.1935 19.1334C12.1935 19.1404 12.1935 19.1475 12.1935 19.1546C12.1935 19.1616 12.1935 19.1687 12.1935 19.1757C12.1935 19.1828 12.1935 19.1898 12.1935 19.1968C12.1935 19.2039 12.1935 19.2109 12.1935 19.2179C12.1935 19.225 12.1935 19.232 12.1935 19.239C12.1935 19.246 12.1935 19.253 12.1935 19.2601C12.1935 19.2671 12.1935 19.2741 12.1935 19.2811C12.1935 19.2881 12.1935 19.2951 12.1935 19.302C12.1935 19.309 12.1935 19.316 12.1935 19.323C12.1935 19.33 12.1935 19.337 12.1935 19.3439C12.1935 19.3509 12.1935 19.3579 12.1935 19.3648C12.1935 19.3718 12.1935 19.3787 12.1935 19.3857C12.1935 19.3926 12.1935 19.3996 12.1935 19.4065C12.1935 19.4134 12.1935 19.4204 12.1935 19.4273C12.1935 19.4342 12.1935 19.4411 12.1935 19.4481C12.1935 19.455 12.1935 19.4619 12.1935 19.4688C12.1935 19.4757 12.1935 19.4826 12.1935 19.4895C12.1935 19.4964 12.1935 19.5033 12.1935 19.5102C12.1935 19.517 12.1935 19.5239 12.1935 19.5308C12.1935 19.5377 12.1935 19.5445 12.1935 19.5514C12.1935 19.5583 12.1935 19.5651 12.1935 19.572C12.1935 19.5788 12.1935 19.5857 12.1935 19.5925C12.1935 19.5993 12.1935 19.6062 12.1935 19.613C12.1935 19.6198 12.1935 19.6267 12.1935 19.6335C12.1935 19.6403 12.1935 19.6471 12.1935 19.6539C12.1935 19.6607 12.1935 19.6675 12.1935 19.6743C12.1935 19.6811 12.1935 19.6879 12.1935 19.6947C12.1935 19.7015 12.1935 19.7082 12.1935 19.715C12.1935 19.7218 12.1935 19.7285 12.1935 19.7353C12.1935 19.742 12.1935 19.7488 12.1935 19.7555C12.1935 19.7623 12.1935 19.769 12.1935 19.7758C12.1935 19.7825 12.1935 19.7892 12.1935 19.7959C12.1935 19.8027 12.1935 19.8094 12.1935 19.8161C12.1935 19.8228 12.1935 19.8295 12.1935 19.8362C12.1935 19.8429 12.1935 19.8496 12.1935 19.8563C12.1935 19.863 12.1935 19.8696 12.1935 19.8763C12.1935 19.883 12.1935 19.8896 12.1935 19.8963C12.1935 19.903 12.1935 19.9096 12.1935 19.9163C12.1935 19.9229 12.1935 19.9296 12.1935 19.9362C12.1935 19.9428 12.1935 19.9494 12.1935 19.9561C12.1935 19.9627 12.1935 19.9693 12.1935 19.9759C12.1935 19.9825 12.1935 19.9891 12.1935 19.9957C12.1935 20.0023 12.1935 20.0089 12.1935 20.0155C12.1935 20.0221 12.1935 20.0286 12.1935 20.0352C12.1935 20.0418 12.1935 20.0483 12.1935 20.0549C12.1935 20.0614 12.1935 20.068 12.1935 20.0745C12.1935 20.0811 12.1935 20.0876 12.1935 20.0941C12.1935 20.1007 12.1935 20.1072 12.1935 20.1137C12.1935 20.1202 12.1935 20.1267 12.1935 20.1332C12.1935 20.1397 12.1935 20.1462 12.1935 20.1527C12.1935 20.1592 12.1935 20.1657 12.1935 20.1721C12.1935 20.1786 12.1935 20.1851 12.1935 20.1915C12.1935 20.198 12.1935 20.2045 12.1935 20.2109C12.1935 20.2173 12.1935 20.2238 12.1935 20.2302C12.1935 20.2366 12.1935 20.2431 12.1935 20.2495C12.1935 20.2559 12.1935 20.2623 12.1935 20.2687C12.1935 20.2751 12.1935 20.2815 12.1935 20.2879C12.1935 20.2943 12.1935 20.3007 12.1935 20.307C12.1935 20.3134 12.1935 20.3198 12.1935 20.3261C12.1935 20.3325 12.1935 20.3388 12.1935 20.3452C12.1935 20.3515 12.1935 20.3579 12.1935 20.3642C12.1935 20.3705 12.1935 20.3768 12.1935 20.3831C12.1935 20.3895 12.1935 20.3958 12.1935 20.4021C12.1935 20.4084 12.1935 20.4147 12.1935 20.4209C12.1935 20.4272 12.1935 20.4335 12.1935 20.4398C12.1935 20.446 12.1935 20.4523 12.1935 20.4585C12.1935 20.4648 12.1935 20.471 12.1935 20.4773C12.1935 20.4835 12.1935 20.4897 12.1935 20.496C12.1935 20.5022 12.1935 20.5084 12.1935 20.5146C12.1935 20.5208 12.1935 20.527 12.1935 20.5332C12.1935 20.5394 12.1935 20.5456 12.1935 20.5518C12.1935 20.5579 12.1935 20.5641 12.1935 20.5703C12.1935 20.5764 12.1935 20.5826 12.1935 20.5887C12.1935 20.5948 12.1935 20.601 12.1935 20.6071C12.1935 20.6132 12.1935 20.6194 12.1935 20.6255C12.1935 20.6316 12.1935 20.6377 12.1935 20.6438C12.1935 20.6499 12.1935 20.656 12.1935 20.662C12.1935 20.6681 12.1935 20.6742 12.1935 20.6802C12.1935 20.6863 12.1935 20.6924 12.1935 20.6984C12.1935 20.7045 12.1935 20.7105 12.1935 20.7165C12.1935 20.7225 12.1935 20.7286 12.1935 20.7346C12.1935 20.7406 12.1935 20.7466 12.1935 20.7526C12.1935 20.7586 12.1935 20.7646 12.1935 20.7705C12.1935 20.7765 12.1935 20.7825 12.1935 20.7885C12.1935 20.7944 12.1935 20.8004 12.1935 20.8063C12.1935 20.8123 12.1935 20.8182 12.1935 20.8241C12.1935 20.8301 12.1935 20.836 12.1935 20.8419C12.1935 20.8478 12.1935 20.8537 12.1935 20.8596C12.1935 20.8655 12.1935 20.8714 12.1935 20.8772C12.1935 20.8831 12.1935 20.889 12.1935 20.8948C12.1935 20.9007 12.1935 20.9065 12.1935 20.9124C12.1935 20.9182 12.1935 20.9241 12.1935 20.9299C12.1935 20.9357 12.1935 20.9415 12.1935 20.9473C12.1935 20.9531 12.1935 20.9589 12.1935 20.9647C12.1935 20.9705 12.1935 20.9763 12.1935 20.982C12.1935 20.9878 12.1935 20.9936 12.1935 20.9993C12.1935 21.0051 12.1935 21.0108 12.1935 21.0165C12.1935 21.0223 12.1935 21.028 12.1935 21.0337C12.1935 21.0394 12.1935 21.0451 12.1935 21.0508C12.1935 21.0565 12.1935 21.0622 12.1935 21.0679C12.1935 21.0736 12.1935 21.0792 12.1935 21.0849C12.1935 21.0906 12.1935 21.0962 12.1935 21.1018C12.1935 21.1075 12.1935 21.1131 12.1935 21.1187C12.1935 21.1244 12.1935 21.13 12.1935 21.1356C12.1935 21.1412 12.1935 21.1468 12.1935 21.1524C12.1935 21.1579 12.1935 21.1635 12.1935 21.1691C12.1935 21.1747 12.1935 21.1802 12.1935 21.1858C12.1935 21.1913 12.1935 21.1968 12.1935 21.2024C12.1935 21.2079 12.1935 21.2134 12.1935 21.2189C12.1935 21.2244 12.1935 21.2299 12.1935 21.2354C12.1935 21.2409 12.1935 21.2464 12.1935 21.2518C12.1935 21.2573 12.1935 21.2628 12.1935 21.2682C12.1935 21.2737 12.1935 21.2791 12.1935 21.2845C12.1935 21.29 12.1935 21.2954 12.1935 21.3008C12.1935 21.3062 12.1935 21.3116 12.1935 21.317C12.1935 21.3224 12.1935 21.3278 12.1935 21.3331C12.1935 21.3385 12.1935 21.3439 12.1935 21.3492C12.1935 21.3546 12.1935 21.3599 12.1935 21.3652C12.1935 21.3706 12.1935 21.3759 12.1935 21.3812C12.1935 21.3865 12.1935 21.3918 12.1935 21.3971C12.1935 21.4024 12.1935 21.4077 12.1935 21.4129C12.1935 21.4182 12.1935 21.4235 12.1935 21.4287C12.1935 21.434 12.1935 21.4392 12.1935 21.4444C12.1935 21.4497 12.1935 21.4549 12.1935 21.4601C12.1935 21.4653 12.1935 21.4705 12.1935 21.4757C12.1935 21.4809 12.1935 21.486 12.1935 21.4912C12.1935 21.4964 12.1935 21.5015 12.1935 21.5067C12.1935 21.5118 12.1935 21.517 12.1935 21.5221C12.1935 21.5272 12.1935 21.5323 12.1935 21.5374C12.1935 21.5425 12.1935 21.5476 12.1935 21.5527C12.1935 21.5578 12.1935 21.5629 12.1935 21.5679C12.1935 21.573 12.1935 21.578 12.1935 21.5831C12.1935 21.5881 12.1935 21.5931 12.1935 21.5982C12.1935 21.6032 12.1935 21.6082 12.1935 21.6132C12.1935 21.6182 12.1935 21.6232 12.1935 21.6281C12.1935 21.6331 12.1935 21.6381 12.1935 21.643C12.1935 21.648 12.1935 21.6529 12.1935 21.6579C12.1935 21.6628 12.1935 21.6677 12.1935 21.6726C12.1935 21.6775 12.1935 21.6824 12.1935 21.6873C12.1935 21.6922 12.1935 21.6971 12.1935 21.7019C12.1935 21.7068 12.1935 21.7117 12.1935 21.7165C12.1935 21.7213 12.1935 21.7262 12.1935 21.731C12.1935 21.7358 12.1935 21.7406 12.1935 21.7454C12.1935 21.7502 12.1935 21.755 12.1935 21.7598C12.1935 21.7646 12.1935 21.7693 12.1935 21.7741C12.1935 21.7788 12.1935 21.7836 12.1935 21.7883C12.1935 21.793 12.1935 21.7978 12.1935 21.8025C12.1935 21.8072 12.1935 21.8119 12.1935 21.8166C12.1935 21.8212 12.1935 21.8259 12.1935 21.8306C12.1935 21.8352 12.1935 21.8399 12.1935 21.8445C12.1935 21.8492 12.1935 21.8538 12.1935 21.8584C12.1935 21.863 12.1935 21.8676 12.1935 21.8722C12.1935 21.8768 12.1935 21.8814 12.1935 21.886C12.1935 21.8905 12.1935 21.8951 12.1935 21.8997C12.1935 21.9042 12.1935 21.9087 12.1935 21.9133C12.1935 21.9178 12.1935 21.9223 12.1935 21.9268C12.1935 21.9313 12.1935 21.9358 12.1935 21.9403C12.1935 21.9447 12.1935 21.9492 12.1935 21.9536C12.1935 21.9581 12.1935 21.9625 12.1935 21.967C12.1935 21.9714 12.1935 21.9758 12.1935 21.9802C12.1935 21.9846 12.1935 21.989 12.1935 21.9934C12.1935 21.9978 12.1935 22.0021 12.1935 22.0065C12.1935 22.0108 12.1935 22.0152 12.1935 22.0195C12.1935 22.0239 12.1935 22.0282 12.1935 22.0325C12.1935 22.0368 12.1935 22.0411 12.1935 22.0454C12.1935 22.0497 12.1935 22.0539 12.1935 22.0582C12.1935 22.0624 12.1935 22.0667 12.1935 22.0709C12.1935 22.0752 12.1935 22.0794 12.1935 22.0836C12.1935 22.0878 12.1935 22.092 12.1935 22.0962C12.1935 22.1004 12.1935 22.1045 12.1935 22.1087C12.1935 22.1129 12.1935 22.117 12.1935 22.1211C12.1935 22.1253 12.1935 22.1294 12.1935 22.1335C12.1935 22.1376 12.1935 22.1417 12.1935 22.1458C12.1935 22.1499 12.1935 22.154 12.1935 22.158C12.1935 22.1621 12.1935 22.1661 12.1935 22.1702C12.1935 22.1742 12.1935 22.1782 12.1935 22.1822C12.1935 22.1862 12.1935 22.1902 12.1935 22.1942C12.1935 22.1982 12.1935 22.2022 12.1935 22.2061C12.1935 22.2101 12.1935 22.214 12.1935 22.2179C12.1935 22.2219 12.1935 22.2258 12.1935 22.2297C12.1935 22.2336 12.1935 22.2375 12.1935 22.2414C12.1935 22.2453 12.1935 22.2491 12.1935 22.253C12.1935 22.2568 12.1935 22.2607 12.1935 22.2645C12.1935 22.2683 12.1935 22.2722 12.1935 22.276C12.1935 22.2798 12.1935 22.2836 12.1935 22.2873C12.1935 22.2911 12.1935 22.2949 12.1935 22.2986C12.1935 22.3024 12.1935 22.3061 12.1935 22.3098C12.1935 22.3135 12.1935 22.3173 12.1935 22.321C12.1935 22.3247 12.1935 22.3283 12.1935 22.332C12.1935 22.3357 12.1935 22.3393 12.1935 22.343C12.1935 22.3466 12.1935 22.3502 12.1935 22.3539C12.1935 22.3575 12.1935 22.3611 12.1935 22.3647C12.1935 22.3683 12.1935 22.3718 12.1935 22.3754C12.1935 22.379 12.1935 22.3825 12.1935 22.3861C12.1935 22.3896 12.1935 22.3931 12.1935 22.3966C12.1935 22.4001 12.1935 22.4036 12.1935 22.4071C12.1935 22.4106 12.1935 22.4141 12.1935 22.4175C12.1935 22.421 12.1935 22.4244 12.1935 22.4278C12.1935 22.4313 12.1935 22.4347 12.1935 22.4381C12.1935 22.4415 12.1935 22.4449 12.1935 22.4482C12.1935 22.4516 12.1935 22.455 12.1935 22.4583C12.1935 22.4616 12.1935 22.465 12.1935 22.4683C12.1935 22.4716 12.1935 22.4749 12.1935 22.4782C12.1935 22.4815 12.1935 22.4848 12.1935 22.488C12.1935 22.4913 12.1935 22.4945 12.1935 22.4978C12.1935 22.501 12.1935 22.5042 12.1935 22.5074C12.1935 22.5106 12.1935 22.5138 12.1935 22.517C12.1935 22.5202 12.1935 22.5233 12.1935 22.5265C12.1935 22.5296 12.1935 22.5327 12.1935 22.5359C12.1935 22.539 12.1935 22.5421 12.1935 22.5452C12.1935 22.5483 12.1935 22.5513 12.1935 22.5544C12.1935 22.5575 12.1935 22.5605 12.1935 22.5636C12.1935 22.5666 12.1935 22.5696 12.1935 22.5726C12.1935 22.5756 12.1935 22.5786 12.1935 22.5816C12.1935 22.5846 12.1935 22.5875 12.1935 22.5905C12.1935 22.5934 12.1935 22.5963 12.1935 22.5993C12.1935 22.6022 12.1935 22.6051 12.1935 22.608C12.1935 22.6109 12.1935 22.6137 12.1935 22.6166C12.1935 22.6194 12.1935 22.6223 12.1935 22.6251C12.1935 22.628 12.1935 22.6308 12.1935 22.6336C12.1935 22.6364 12.1935 22.6392 12.1935 22.6419C12.1935 22.6447 12.1935 22.6474 12.1935 22.6502C12.1935 22.6529 12.1935 22.6557 12.1935 22.6584C12.1935 22.6611 12.1935 22.6638 12.1935 22.6665C12.1935 22.6691 12.1935 22.6718 12.1935 22.6745C12.1935 22.6771 12.1935 22.6797 12.1935 22.6824C12.1935 22.685 12.1935 22.6876 12.1935 22.6902C12.1935 22.6928 12.1935 22.6954 12.1935 22.6979C12.1935 22.7005 12.1935 22.703 12.1935 22.7056C12.1935 22.7081 12.1935 22.7106 12.1935 22.7131C12.1935 22.7156 12.1935 22.7181 12.1935 22.7206C12.1935 22.723 12.1935 22.7255 12.1935 22.7279C12.1935 22.7304 12.1935 22.7328 12.1935 22.7352C12.1935 22.7376 12.1935 22.74 12.1935 22.7424C12.1935 22.7448 12.1935 22.7471 12.1935 22.7495C12.1935 22.7518 12.1935 22.7542 12.1935 22.7565C12.1935 22.7588 12.1935 22.7611 12.1935 22.7634C12.1935 22.7657 12.1935 22.7679 12.1935 22.7702C12.1935 22.7724 12.1935 22.7747 12.1935 22.7769C12.1935 22.7791 12.1935 22.7813 12.1935 22.7835C12.1935 22.7857 12.1935 22.7879 12.1935 22.7901C12.1935 22.7922 12.1935 22.7944 12.1935 22.7965C12.1935 22.7986 12.1935 22.8007 12.1935 22.8028C12.1935 22.8049 12.1935 22.807 12.1935 22.8091C12.1935 22.8111 12.1935 22.8132 12.1935 22.8152C12.1935 22.8173 12.1935 22.8193 12.1935 22.8213C12.1935 22.8233 12.1935 22.8253 12.1935 22.8272C12.1935 22.8292 12.1935 22.8312 12.1935 22.8331C12.1935 22.8351 12.1935 22.837 12.1935 22.8389C12.1935 22.8408 12.1935 22.8427 12.1935 22.8446C12.1935 22.8464 12.1935 22.8483 12.1935 22.8501C12.1935 22.852 12.1935 22.8538 12.1935 22.8556C12.1935 22.8574 12.1935 22.8592 12.1935 22.861C12.1935 22.8628 12.1935 22.8645 12.1935 22.8663C12.1935 22.868 12.1935 22.8697 12.1935 22.8715C12.1935 22.8732 12.1935 22.8749 12.1935 22.8765C12.1935 22.8782 12.1935 22.8799 12.1935 22.8815C12.1935 22.8832 12.1935 22.8848 12.1935 22.8864C12.1935 22.888 12.1935 22.8896 12.1935 22.8912C12.1935 22.8928 12.1935 22.8944 12.1935 22.8959C12.1935 22.8975 12.1935 22.899 12.1935 22.9005C12.1935 22.902 12.1935 22.9035 12.1935 22.905C12.1935 22.9065 12.1935 22.9079 12.1935 22.9094C12.1935 22.9108 12.1935 22.9123 12.1935 22.9137C12.1935 22.9151 12.1935 22.9165 12.1935 22.9179C12.1935 22.9193 12.1935 22.9206 12.1935 22.922C12.1935 22.9233 12.1935 22.9246 12.1935 22.926C12.1935 22.9273 12.1935 22.9286 12.1935 22.9298C12.1935 22.9311 12.1935 22.9324 12.1935 22.9336C12.1935 22.9349 12.1935 22.9361 12.1935 22.9373C12.1935 22.9385 12.1935 22.9397 12.1935 22.9409C12.1935 22.9421 12.1935 22.9432 12.1935 22.9444C12.1935 22.9455 12.1935 22.9466 12.1935 22.9478C12.1935 22.9489 12.1935 22.95 12.1935 22.951C12.1935 22.9521 12.1935 22.9532 12.1935 22.9542C12.1935 22.9552 12.1935 22.9563 12.1935 22.9573C12.1935 22.9583 12.1935 22.9593 12.1935 22.9602C12.1935 22.9612 12.1935 22.9622 12.1935 22.9631C12.1935 22.964 12.1935 22.9649 12.1935 22.9659C12.1935 22.9668 12.1935 22.9676 12.1935 22.9685C12.1935 22.9694 12.1935 22.9702 12.1935 22.971C12.1935 22.9719 12.1935 22.9727 12.1935 22.9735C12.1935 22.9743 12.1935 22.9751 12.1935 22.9758C12.1935 22.9766 12.1935 22.9773 12.1935 22.9781C12.1935 22.9788 12.1935 22.9795 12.1935 22.9802C12.1935 22.9809 12.1935 22.9815 12.1935 22.9822C12.1935 22.9828 12.1935 22.9835 12.1935 22.9841C12.1935 22.9847 12.1935 22.9853 12.1935 22.9859C12.1935 22.9865 12.1935 22.9871 12.1935 22.9876C12.1935 22.9881 12.1935 22.9887 12.1935 22.9892C12.1935 22.9897 12.1935 22.9902 12.1935 22.9907C12.1935 22.9911 12.1935 22.9916 12.1935 22.992C12.1935 22.9925 12.1935 22.9929 12.1935 22.9933C12.1935 22.9937 12.1935 22.9941 12.1935 22.9945C12.1935 22.9948 12.1935 22.9952 12.1935 22.9955C12.1935 22.9958 12.1935 22.9962 12.1935 22.9965C12.1935 22.9967 12.1935 22.997 12.1935 22.9973C12.1935 22.9975 12.1935 22.9978 12.1935 22.998C12.1935 22.9982 12.1935 22.9984 12.1935 22.9986C12.1935 22.9988 12.1935 22.999 12.1935 22.9991C12.1935 22.9993 12.1935 22.9994 12.1935 22.9995C12.1935 22.9996 12.1935 22.9997 12.1935 22.9998C12.1935 22.9999 12.1935 22.9999 12.1935 22.9999C12.1935 23 12.1935 23 13.1935 23ZM14.1935 14.5335C14.1935 13.9038 14.413 13.5641 14.6516 13.3697C14.9165 13.154 15.3174 13.0292 15.7842 13.0546C16.7849 13.1092 17.4839 13.7436 17.4839 14.5335H19.4839C19.4839 12.3089 17.5377 11.1473 15.8932 11.0576C15.0375 11.0109 14.1158 11.2268 13.3887 11.8189C12.6354 12.4323 12.1935 13.3674 12.1935 14.5335H14.1935ZM17.4839 14.5335V23H19.4839V14.5335H17.4839ZM18.4839 24H23V22H18.4839V24ZM23 23C24 23 24 23 24 23C24 22.9999 24 22.9999 24 22.9998C24 22.9997 24 22.9997 24 22.9996C24 22.9995 24 22.9994 24 22.9992C24 22.9991 24 22.999 24 22.9988C24 22.9987 24 22.9985 24 22.9983C24 22.9981 24 22.9979 24 22.9977C24 22.9975 24 22.9973 24 22.997C24 22.9968 24 22.9965 24 22.9962C24 22.9959 24 22.9956 24 22.9953C24 22.995 24 22.9947 24 22.9943C24 22.994 24 22.9936 24 22.9933C24 22.9929 24 22.9925 24 22.9921C24 22.9917 24 22.9913 24 22.9908C24 22.9904 24 22.99 24 22.9895C24 22.989 24 22.9885 24 22.988C24 22.9875 24 22.987 24 22.9865C24 22.986 24 22.9854 24 22.9849C24 22.9843 24 22.9838 24 22.9832C24 22.9826 24 22.982 24 22.9813C24 22.9807 24 22.9801 24 22.9794C24 22.9788 24 22.9781 24 22.9775C24 22.9768 24 22.9761 24 22.9754C24 22.9747 24 22.9739 24 22.9732C24 22.9724 24 22.9717 24 22.9709C24 22.9701 24 22.9694 24 22.9686C24 22.9678 24 22.9669 24 22.9661C24 22.9653 24 22.9644 24 22.9636C24 22.9627 24 22.9618 24 22.9609C24 22.96 24 22.9591 24 22.9582C24 22.9573 24 22.9563 24 22.9554C24 22.9544 24 22.9535 24 22.9525C24 22.9515 24 22.9505 24 22.9495C24 22.9485 24 22.9474 24 22.9464C24 22.9453 24 22.9443 24 22.9432C24 22.9421 24 22.941 24 22.9399C24 22.9388 24 22.9377 24 22.9366C24 22.9354 24 22.9343 24 22.9331C24 22.932 24 22.9308 24 22.9296C24 22.9284 24 22.9272 24 22.926C24 22.9247 24 22.9235 24 22.9222C24 22.921 24 22.9197 24 22.9184C24 22.9172 24 22.9159 24 22.9145C24 22.9132 24 22.9119 24 22.9106C24 22.9092 24 22.9079 24 22.9065C24 22.9051 24 22.9037 24 22.9023C24 22.9009 24 22.8995 24 22.8981C24 22.8966 24 22.8952 24 22.8937C24 22.8923 24 22.8908 24 22.8893C24 22.8878 24 22.8863 24 22.8848C24 22.8832 24 22.8817 24 22.8802C24 22.8786 24 22.877 24 22.8755C24 22.8739 24 22.8723 24 22.8707C24 22.8691 24 22.8674 24 22.8658C24 22.8642 24 22.8625 24 22.8608C24 22.8592 24 22.8575 24 22.8558C24 22.8541 24 22.8524 24 22.8506C24 22.8489 24 22.8472 24 22.8454C24 22.8437 24 22.8419 24 22.8401C24 22.8383 24 22.8365 24 22.8347C24 22.8329 24 22.8311 24 22.8292C24 22.8274 24 22.8255 24 22.8236C24 22.8218 24 22.8199 24 22.818C24 22.8161 24 22.8141 24 22.8122C24 22.8103 24 22.8083 24 22.8064C24 22.8044 24 22.8024 24 22.8004C24 22.7985 24 22.7965 24 22.7944C24 22.7924 24 22.7904 24 22.7883C24 22.7863 24 22.7842 24 22.7821C24 22.7801 24 22.778 24 22.7759C24 22.7738 24 22.7716 24 22.7695C24 22.7674 24 22.7652 24 22.7631C24 22.7609 24 22.7587 24 22.7565C24 22.7543 24 22.7521 24 22.7499C24 22.7477 24 22.7455 24 22.7432C24 22.741 24 22.7387 24 22.7364C24 22.7341 24 22.7318 24 22.7295C24 22.7272 24 22.7249 24 22.7226C24 22.7202 24 22.7179 24 22.7155C24 22.7132 24 22.7108 24 22.7084C24 22.706 24 22.7036 24 22.7012C24 22.6988 24 22.6963 24 22.6939C24 22.6914 24 22.689 24 22.6865C24 22.684 24 22.6815 24 22.679C24 22.6765 24 22.674 24 22.6714C24 22.6689 24 22.6664 24 22.6638C24 22.6612 24 22.6587 24 22.6561C24 22.6535 24 22.6509 24 22.6483C24 22.6456 24 22.643 24 22.6404C24 22.6377 24 22.635 24 22.6324C24 22.6297 24 22.627 24 22.6243C24 22.6216 24 22.6189 24 22.6161C24 22.6134 24 22.6107 24 22.6079C24 22.6052 24 22.6024 24 22.5996C24 22.5968 24 22.594 24 22.5912C24 22.5884 24 22.5855 24 22.5827C24 22.5799 24 22.577 24 22.5741C24 22.5713 24 22.5684 24 22.5655C24 22.5626 24 22.5597 24 22.5567C24 22.5538 24 22.5509 24 22.5479C24 22.545 24 22.542 24 22.539C24 22.536 24 22.533 24 22.53C24 22.527 24 22.524 24 22.5209C24 22.5179 24 22.5148 24 22.5118C24 22.5087 24 22.5056 24 22.5025C24 22.4994 24 22.4963 24 22.4932C24 22.4901 24 22.487 24 22.4838C24 22.4807 24 22.4775 24 22.4743C24 22.4712 24 22.468 24 22.4648C24 22.4616 24 22.4583 24 22.4551C24 22.4519 24 22.4486 24 22.4454C24 22.4421 24 22.4388 24 22.4356C24 22.4323 24 22.429 24 22.4257C24 22.4223 24 22.419 24 22.4157C24 22.4123 24 22.409 24 22.4056C24 22.4022 24 22.3989 24 22.3955C24 22.3921 24 22.3887 24 22.3852C24 22.3818 24 22.3784 24 22.3749C24 22.3715 24 22.368 24 22.3645C24 22.3611 24 22.3576 24 22.3541C24 22.3506 24 22.3471 24 22.3435C24 22.34 24 22.3365 24 22.3329C24 22.3293 24 22.3258 24 22.3222C24 22.3186 24 22.315 24 22.3114C24 22.3078 24 22.3041 24 22.3005C24 22.2969 24 22.2932 24 22.2896C24 22.2859 24 22.2822 24 22.2785C24 22.2748 24 22.2711 24 22.2674C24 22.2637 24 22.2599 24 22.2562C24 22.2525 24 22.2487 24 22.2449C24 22.2412 24 22.2374 24 22.2336C24 22.2298 24 22.226 24 22.2221C24 22.2183 24 22.2145 24 22.2106C24 22.2068 24 22.2029 24 22.199C24 22.1951 24 22.1912 24 22.1873C24 22.1834 24 22.1795 24 22.1756C24 22.1716 24 22.1677 24 22.1637C24 22.1598 24 22.1558 24 22.1518C24 22.1478 24 22.1438 24 22.1398C24 22.1358 24 22.1318 24 22.1278C24 22.1237 24 22.1197 24 22.1156C24 22.1115 24 22.1075 24 22.1034C24 22.0993 24 22.0952 24 22.0911C24 22.0869 24 22.0828 24 22.0787C24 22.0745 24 22.0704 24 22.0662C24 22.062 24 22.0578 24 22.0537C24 22.0495 24 22.0452 24 22.041C24 22.0368 24 22.0326 24 22.0283C24 22.0241 24 22.0198 24 22.0155C24 22.0113 24 22.007 24 22.0027C24 21.9984 24 21.9941 24 21.9897C24 21.9854 24 21.9811 24 21.9767C24 21.9724 24 21.968 24 21.9636C24 21.9593 24 21.9549 24 21.9505C24 21.9461 24 21.9416 24 21.9372C24 21.9328 24 21.9283 24 21.9239C24 21.9194 24 21.915 24 21.9105C24 21.906 24 21.9015 24 21.897C24 21.8925 24 21.888 24 21.8834C24 21.8789 24 21.8744 24 21.8698C24 21.8652 24 21.8607 24 21.8561C24 21.8515 24 21.8469 24 21.8423C24 21.8377 24 21.8331 24 21.8284C24 21.8238 24 21.8191 24 21.8145C24 21.8098 24 21.8052 24 21.8005C24 21.7958 24 21.7911 24 21.7864C24 21.7817 24 21.7769 24 21.7722C24 21.7675 24 21.7627 24 21.7579C24 21.7532 24 21.7484 24 21.7436C24 21.7388 24 21.734 24 21.7292C24 21.7244 24 21.7196 24 21.7147C24 21.7099 24 21.7051 24 21.7002C24 21.6953 24 21.6904 24 21.6856C24 21.6807 24 21.6758 24 21.6709C24 21.6659 24 21.661 24 21.6561C24 21.6511 24 21.6462 24 21.6412C24 21.6363 24 21.6313 24 21.6263C24 21.6213 24 21.6163 24 21.6113C24 21.6063 24 21.6012 24 21.5962C24 21.5912 24 21.5861 24 21.581C24 21.576 24 21.5709 24 21.5658C24 21.5607 24 21.5556 24 21.5505C24 21.5454 24 21.5403 24 21.5351C24 21.53 24 21.5248 24 21.5197C24 21.5145 24 21.5093 24 21.5041C24 21.499 24 21.4938 24 21.4885C24 21.4833 24 21.4781 24 21.4729C24 21.4676 24 21.4624 24 21.4571C24 21.4519 24 21.4466 24 21.4413C24 21.436 24 21.4307 24 21.4254C24 21.4201 24 21.4148 24 21.4094C24 21.4041 24 21.3987 24 21.3934C24 21.388 24 21.3826 24 21.3772C24 21.3719 24 21.3665 24 21.3611C24 21.3556 24 21.3502 24 21.3448C24 21.3394 24 21.3339 24 21.3284C24 21.323 24 21.3175 24 21.312C24 21.3065 24 21.3011 24 21.2955C24 21.29 24 21.2845 24 21.279C24 21.2735 24 21.2679 24 21.2624C24 21.2568 24 21.2512 24 21.2456C24 21.2401 24 21.2345 24 21.2289C24 21.2233 24 21.2176 24 21.212C24 21.2064 24 21.2007 24 21.1951C24 21.1894 24 21.1838 24 21.1781C24 21.1724 24 21.1667 24 21.161C24 21.1553 24 21.1496 24 21.1439C24 21.1382 24 21.1324 24 21.1267C24 21.1209 24 21.1152 24 21.1094C24 21.1036 24 21.0978 24 21.092C24 21.0862 24 21.0804 24 21.0746C24 21.0688 24 21.063 24 21.0571C24 21.0513 24 21.0454 24 21.0395C24 21.0337 24 21.0278 24 21.0219C24 21.016 24 21.0101 24 21.0042C24 20.9983 24 20.9923 24 20.9864C24 20.9805 24 20.9745 24 20.9686C24 20.9626 24 20.9566 24 20.9506C24 20.9446 24 20.9386 24 20.9326C24 20.9266 24 20.9206 24 20.9146C24 20.9085 24 20.9025 24 20.8964C24 20.8904 24 20.8843 24 20.8782C24 20.8721 24 20.866 24 20.8599C24 20.8538 24 20.8477 24 20.8416C24 20.8355 24 20.8293 24 20.8232C24 20.817 24 20.8109 24 20.8047C24 20.7985 24 20.7923 24 20.7861C24 20.7799 24 20.7737 24 20.7675C24 20.7613 24 20.755 24 20.7488C24 20.7425 24 20.7363 24 20.73C24 20.7238 24 20.7175 24 20.7112C24 20.7049 24 20.6986 24 20.6923C24 20.686 24 20.6796 24 20.6733C24 20.667 24 20.6606 24 20.6543C24 20.6479 24 20.6415 24 20.6351C24 20.6288 24 20.6224 24 20.616C24 20.6095 24 20.6031 24 20.5967C24 20.5903 24 20.5838 24 20.5774C24 20.5709 24 20.5645 24 20.558C24 20.5515 24 20.545 24 20.5385C24 20.532 24 20.5255 24 20.519C24 20.5125 24 20.5059 24 20.4994C24 20.4929 24 20.4863 24 20.4797C24 20.4732 24 20.4666 24 20.46C24 20.4534 24 20.4468 24 20.4402C24 20.4336 24 20.427 24 20.4203C24 20.4137 24 20.4071 24 20.4004C24 20.3937 24 20.3871 24 20.3804C24 20.3737 24 20.367 24 20.3603C24 20.3536 24 20.3469 24 20.3402C24 20.3335 24 20.3267 24 20.32C24 20.3132 24 20.3065 24 20.2997C24 20.2929 24 20.2861 24 20.2794C24 20.2726 24 20.2658 24 20.2589C24 20.2521 24 20.2453 24 20.2385C24 20.2316 24 20.2248 24 20.2179C24 20.2111 24 20.2042 24 20.1973C24 20.1904 24 20.1835 24 20.1766C24 20.1697 24 20.1628 24 20.1559C24 20.149 24 20.142 24 20.1351C24 20.1281 24 20.1212 24 20.1142C24 20.1072 24 20.1003 24 20.0933C24 20.0863 24 20.0793 24 20.0723C24 20.0653 24 20.0582 24 20.0512C24 20.0442 24 20.0371 24 20.0301C24 20.023 24 20.0159 24 20.0088C24 20.0018 24 19.9947 24 19.9876C24 19.9805 24 19.9734 24 19.9662C24 19.9591 24 19.952 24 19.9448C24 19.9377 24 19.9305 24 19.9234C24 19.9162 24 19.909 24 19.9018C24 19.8946 24 19.8874 24 19.8802C24 19.873 24 19.8658 24 19.8586C24 19.8513 24 19.8441 24 19.8368C24 19.8296 24 19.8223 24 19.815C24 19.8078 24 19.8005 24 19.7932C24 19.7859 24 19.7786 24 19.7713C24 19.7639 24 19.7566 24 19.7493C24 19.7419 24 19.7346 24 19.7272C24 19.7199 24 19.7125 24 19.7051C24 19.6977 24 19.6903 24 19.6829C24 19.6755 24 19.6681 24 19.6607C24 19.6533 24 19.6458 24 19.6384C24 19.6309 24 19.6235 24 19.616C24 19.6085 24 19.6011 24 19.5936C24 19.5861 24 19.5786 24 19.5711C24 19.5636 24 19.556 24 19.5485C24 19.541 24 19.5334 24 19.5259C24 19.5183 24 19.5108 24 19.5032C24 19.4956 24 19.488 24 19.4804C24 19.4728 24 19.4652 24 19.4576C24 19.45 24 19.4424 24 19.4347C24 19.4271 24 19.4194 24 19.4118C24 19.4041 24 19.3965 24 19.3888C24 19.3811 24 19.3734 24 19.3657C24 19.358 24 19.3503 24 19.3426C24 19.3349 24 19.3271 24 19.3194C24 19.3116 24 19.3039 24 19.2961C24 19.2884 24 19.2806 24 19.2728C24 19.265 24 19.2572 24 19.2494C24 19.2416 24 19.2338 24 19.226C24 19.2182 24 19.2103 24 19.2025C24 19.1946 24 19.1868 24 19.1789C24 19.171 24 19.1632 24 19.1553C24 19.1474 24 19.1395 24 19.1316C24 19.1237 24 19.1158 24 19.1078C24 19.0999 24 19.092 24 19.084C24 19.0761 24 19.0681 24 19.0601C24 19.0522 24 19.0442 24 19.0362C24 19.0282 24 19.0202 24 19.0122C24 19.0042 24 18.9962 24 18.9882C24 18.9801 24 18.9721 24 18.964C24 18.956 24 18.9479 24 18.9399C24 18.9318 24 18.9237 24 18.9156C24 18.9075 24 18.8994 24 18.8913C24 18.8832 24 18.8751 24 18.8669C24 18.8588 24 18.8507 24 18.8425C24 18.8344 24 18.8262 24 18.818C24 18.8099 24 18.8017 24 18.7935C24 18.7853 24 18.7771 24 18.7689C24 18.7607 24 18.7525 24 18.7442C24 18.736 24 18.7278 24 18.7195C24 18.7113 24 18.703 24 18.6947C24 18.6865 24 18.6782 24 18.6699C24 18.6616 24 18.6533 24 18.645C24 18.6367 24 18.6283 24 18.62C24 18.6117 24 18.6033 24 18.595C24 18.5866 24 18.5783 24 18.5699C24 18.5615 24 18.5532 24 18.5448C24 18.5364 24 18.528 24 18.5196C24 18.5112 24 18.5027 24 18.4943C24 18.4859 24 18.4774 24 18.469C24 18.4605 24 18.4521 24 18.4436C24 18.4352 24 18.4267 24 18.4182C24 18.4097 24 18.4012 24 18.3927C24 18.3842 24 18.3757 24 18.3671C24 18.3586 24 18.3501 24 18.3415C24 18.333 24 18.3244 24 18.3159C24 18.3073 24 18.2987 24 18.2901C24 18.2816 24 18.273 24 18.2644C24 18.2558 24 18.2471 24 18.2385C24 18.2299 24 18.2213 24 18.2126C24 18.204 24 18.1953 24 18.1867C24 18.178 24 18.1693 24 18.1606C24 18.152 24 18.1433 24 18.1346C24 18.1259 24 18.1172 24 18.1084C24 18.0997 24 18.091 24 18.0823C24 18.0735 24 18.0648 24 18.056C24 18.0473 24 18.0385 24 18.0297C24 18.0209 24 18.0121 24 18.0034C24 17.9946 24 17.9858 24 17.9769C24 17.9681 24 17.9593 24 17.9505C24 17.9416 24 17.9328 24 17.9239C24 17.9151 24 17.9062 24 17.8974C24 17.8885 24 17.8796 24 17.8707C24 17.8618 24 17.8529 24 17.844C24 17.8351 24 17.8262 24 17.8173C24 17.8083 24 17.7994 24 17.7905C24 17.7815 24 17.7726 24 17.7636C24 17.7546 24 17.7456 24 17.7367C24 17.7277 24 17.7187 24 17.7097C24 17.7007 24 17.6917 24 17.6827C24 17.6736 24 17.6646 24 17.6556C24 17.6465 24 17.6375 24 17.6284C24 17.6194 24 17.6103 24 17.6012C24 17.5921 24 17.5831 24 17.574C24 17.5649 24 17.5558 24 17.5467C24 17.5375 24 17.5284 24 17.5193C24 17.5102 24 17.501 24 17.4919C24 17.4827 24 17.4736 24 17.4644C24 17.4552 24 17.4461 24 17.4369C24 17.4277 24 17.4185 24 17.4093C24 17.4001 24 17.3909 24 17.3817C24 17.3724 24 17.3632 24 17.354C24 17.3447 24 17.3355 24 17.3262C24 17.317 24 17.3077 24 17.2984C24 17.2891 24 17.2799 24 17.2706C24 17.2613 24 17.252 24 17.2427C24 17.2333 24 17.224 24 17.2147C24 17.2054 24 17.196 24 17.1867C24 17.1773 24 17.168 24 17.1586C24 17.1492 24 17.1399 24 17.1305C24 17.1211 24 17.1117 24 17.1023C24 17.0929 24 17.0835 24 17.0741C24 17.0647 24 17.0552 24 17.0458C24 17.0364 24 17.0269 24 17.0175C24 17.008 24 16.9985 24 16.9891C24 16.9796 24 16.9701 24 16.9606C24 16.9511 24 16.9416 24 16.9321C24 16.9226 24 16.9131 24 16.9036C24 16.894 24 16.8845 24 16.875C24 16.8654 24 16.8559 24 16.8463C24 16.8368 24 16.8272 24 16.8176C24 16.808 24 16.7985 24 16.7889C24 16.7793 24 16.7697 24 16.76C24 16.7504 24 16.7408 24 16.7312C24 16.7216 24 16.7119 24 16.7023C24 16.6926 24 16.683 24 16.6733C24 16.6636 24 16.654 24 16.6443C24 16.6346 24 16.6249 24 16.6152C24 16.6055 24 16.5958 24 16.5861C24 16.5764 24 16.5667 24 16.5569C24 16.5472 24 16.5375 24 16.5277C24 16.518 24 16.5082 24 16.4984C24 16.4887 24 16.4789 24 16.4691C24 16.4593 24 16.4495 24 16.4397C24 16.4299 24 16.4201 24 16.4103C24 16.4005 24 16.3907 24 16.3808C24 16.371 24 16.3611 24 16.3513C24 16.3414 24 16.3316 24 16.3217C24 16.3118 24 16.302 24 16.2921C24 16.2822 24 16.2723 24 16.2624C24 16.2525 24 16.2426 24 16.2327C24 16.2228 24 16.2128 24 16.2029C24 16.193 24 16.183 24 16.1731C24 16.1631 24 16.1531 24 16.1432C24 16.1332 24 16.1232 24 16.1132C24 16.1033 24 16.0933 24 16.0833C24 16.0733 24 16.0633 24 16.0532C24 16.0432 24 16.0332 24 16.0232C24 16.0131 24 16.0031 24 15.993C24 15.983 24 15.9729 24 15.9629C24 15.9528 24 15.9427 24 15.9326C24 15.9225 24 15.9124 24 15.9024C24 15.8923 24 15.8821 24 15.872C24 15.8619 24 15.8518 24 15.8417C24 15.8315 24 15.8214 24 15.8112C24 15.8011 24 15.7909 24 15.7808C24 15.7706 24 15.7604 24 15.7502C24 15.7401 24 15.7299 24 15.7197C24 15.7095 24 15.6993 24 15.6891C24 15.6788 24 15.6686 24 15.6584C24 15.6482 24 15.6379 24 15.6277C24 15.6174 24 15.6072 24 15.5969C24 15.5866 24 15.5764 24 15.5661C24 15.5558 24 15.5455 24 15.5352C24 15.525 24 15.5147 24 15.5043C24 15.494 24 15.4837 24 15.4734C24 15.4631 24 15.4527 24 15.4424C24 15.432 24 15.4217 24 15.4113C24 15.401 24 15.3906 24 15.3802C24 15.3699 24 15.3595 24 15.3491C24 15.3387 24 15.3283 24 15.3179C24 15.3075 24 15.2971 24 15.2867C24 15.2763 24 15.2658 24 15.2554C24 15.245 24 15.2345 24 15.2241C24 15.2136 24 15.2032 24 15.1927C24 15.1822 24 15.1718 24 15.1613C24 15.1508 24 15.1403 24 15.1298C24 15.1193 24 15.1088 24 15.0983C24 15.0878 24 15.0773 24 15.0667C24 15.0562 24 15.0457 24 15.0351C24 15.0246 24 15.014 24 15.0035C24 14.9929 24 14.9823 24 14.9718C24 14.9612 24 14.9506 24 14.94C24 14.9294 24 14.9188 24 14.9082C24 14.8976 24 14.887 24 14.8764C24 14.8658 24 14.8551 24 14.8445C24 14.8339 24 14.8232 24 14.8126C24 14.8019 24 14.7913 24 14.7806C24 14.7699 24 14.7593 24 14.7486C24 14.7379 24 14.7272 24 14.7165C24 14.7058 24 14.6951 24 14.6844C24 14.6737 24 14.663 24 14.6523C24 14.6415 24 14.6308 24 14.6201C24 14.6093 24 14.5986 24 14.5878C24 14.5771 24 14.5663 24 14.5555C24 14.5448 24 14.534 24 14.5232C24 14.5124 24 14.5016 24 14.4908C24 14.48 24 14.4692 24 14.4584C24 14.4476 24 14.4368 24 14.426C24 14.4151 24 14.4043 24 14.3935C24 14.3826 24 14.3718 24 14.3609C24 14.35 24 14.3392 24 14.3283C24 14.3174 24 14.3066 24 14.2957C24 14.2848 24 14.2739 24 14.263C24 14.2521 24 14.2412 24 14.2303C24 14.2193 24 14.2084 24 14.1975C24 14.1866 24 14.1756 24 14.1647C24 14.1537 24 14.1428 24 14.1318C24 14.1209 24 14.1099 24 14.0989C24 14.088 24 14.077 24 14.066C24 14.055 24 14.044 24 14.033C24 14.022 24 14.011 24 14C24 13.989 24 13.9779 24 13.9669C24 13.9559 24 13.9448 24 13.9338C24 13.9227 24 13.9117 24 13.9006C24 13.8896 24 13.8785 24 13.8674C24 13.8564 24 13.8453 24 13.8342C24 13.8231 24 13.812 24 13.8009C24 13.7898 24 13.7787 24 13.7676C24 13.7565 24 13.7454 24 13.7342C24 13.7231 24 13.712 24 13.7008C24 13.6897 24 13.6785 24 13.6674C24 13.6562 24 13.6451 24 13.6339C24 13.6227 24 13.6115 24 13.6004C24 13.5892 24 13.578 24 13.5668C24 13.5556 24 13.5444 24 13.5332C24 13.522 24 13.5107 24 13.4995C24 13.4883 24 13.4771 24 13.4658C24 13.4546 24 13.4433 24 13.4321C24 13.4208 24 13.4096 24 13.3983C24 13.387 24 13.3758 24 13.3645C24 13.3532 24 13.3419 24 13.3306C24 13.3193 24 13.308 24 13.2967C24 13.2854 24 13.2741 24 13.2628C24 13.2515 24 13.2401 24 13.2288C24 13.2175 24 13.2061 24 13.1948C24 13.1834 24 13.1721 24 13.1607C24 13.1494 24 13.138 24 13.1266C24 13.1153 24 13.1039 24 13.0925C24 13.0811 24 13.0697 24 13.0583H22C22 13.0697 22 13.0811 22 13.0925C22 13.1039 22 13.1153 22 13.1266C22 13.138 22 13.1494 22 13.1607C22 13.1721 22 13.1834 22 13.1948C22 13.2061 22 13.2175 22 13.2288C22 13.2401 22 13.2515 22 13.2628C22 13.2741 22 13.2854 22 13.2967C22 13.308 22 13.3193 22 13.3306C22 13.3419 22 13.3532 22 13.3645C22 13.3758 22 13.387 22 13.3983C22 13.4096 22 13.4208 22 13.4321C22 13.4433 22 13.4546 22 13.4658C22 13.4771 22 13.4883 22 13.4995C22 13.5107 22 13.522 22 13.5332C22 13.5444 22 13.5556 22 13.5668C22 13.578 22 13.5892 22 13.6004C22 13.6115 22 13.6227 22 13.6339C22 13.6451 22 13.6562 22 13.6674C22 13.6785 22 13.6897 22 13.7008C22 13.712 22 13.7231 22 13.7342C22 13.7454 22 13.7565 22 13.7676C22 13.7787 22 13.7898 22 13.8009C22 13.812 22 13.8231 22 13.8342C22 13.8453 22 13.8564 22 13.8674C22 13.8785 22 13.8896 22 13.9006C22 13.9117 22 13.9227 22 13.9338C22 13.9448 22 13.9559 22 13.9669C22 13.9779 22 13.989 22 14C22 14.011 22 14.022 22 14.033C22 14.044 22 14.055 22 14.066C22 14.077 22 14.088 22 14.0989C22 14.1099 22 14.1209 22 14.1318C22 14.1428 22 14.1537 22 14.1647C22 14.1756 22 14.1866 22 14.1975C22 14.2084 22 14.2193 22 14.2303C22 14.2412 22 14.2521 22 14.263C22 14.2739 22 14.2848 22 14.2957C22 14.3066 22 14.3174 22 14.3283C22 14.3392 22 14.35 22 14.3609C22 14.3718 22 14.3826 22 14.3935C22 14.4043 22 14.4151 22 14.426C22 14.4368 22 14.4476 22 14.4584C22 14.4692 22 14.48 22 14.4908C22 14.5016 22 14.5124 22 14.5232C22 14.534 22 14.5448 22 14.5555C22 14.5663 22 14.5771 22 14.5878C22 14.5986 22 14.6093 22 14.6201C22 14.6308 22 14.6415 22 14.6523C22 14.663 22 14.6737 22 14.6844C22 14.6951 22 14.7058 22 14.7165C22 14.7272 22 14.7379 22 14.7486C22 14.7593 22 14.7699 22 14.7806C22 14.7913 22 14.8019 22 14.8126C22 14.8232 22 14.8339 22 14.8445C22 14.8551 22 14.8658 22 14.8764C22 14.887 22 14.8976 22 14.9082C22 14.9188 22 14.9294 22 14.94C22 14.9506 22 14.9612 22 14.9718C22 14.9823 22 14.9929 22 15.0035C22 15.014 22 15.0246 22 15.0351C22 15.0457 22 15.0562 22 15.0667C22 15.0773 22 15.0878 22 15.0983C22 15.1088 22 15.1193 22 15.1298C22 15.1403 22 15.1508 22 15.1613C22 15.1718 22 15.1822 22 15.1927C22 15.2032 22 15.2136 22 15.2241C22 15.2345 22 15.245 22 15.2554C22 15.2658 22 15.2763 22 15.2867C22 15.2971 22 15.3075 22 15.3179C22 15.3283 22 15.3387 22 15.3491C22 15.3595 22 15.3699 22 15.3802C22 15.3906 22 15.401 22 15.4113C22 15.4217 22 15.432 22 15.4424C22 15.4527 22 15.4631 22 15.4734C22 15.4837 22 15.494 22 15.5043C22 15.5147 22 15.525 22 15.5352C22 15.5455 22 15.5558 22 15.5661C22 15.5764 22 15.5866 22 15.5969C22 15.6072 22 15.6174 22 15.6277C22 15.6379 22 15.6482 22 15.6584C22 15.6686 22 15.6788 22 15.6891C22 15.6993 22 15.7095 22 15.7197C22 15.7299 22 15.7401 22 15.7502C22 15.7604 22 15.7706 22 15.7808C22 15.7909 22 15.8011 22 15.8112C22 15.8214 22 15.8315 22 15.8417C22 15.8518 22 15.8619 22 15.872C22 15.8821 22 15.8923 22 15.9024C22 15.9124 22 15.9225 22 15.9326C22 15.9427 22 15.9528 22 15.9629C22 15.9729 22 15.983 22 15.993C22 16.0031 22 16.0131 22 16.0232C22 16.0332 22 16.0432 22 16.0532C22 16.0633 22 16.0733 22 16.0833C22 16.0933 22 16.1033 22 16.1132C22 16.1232 22 16.1332 22 16.1432C22 16.1531 22 16.1631 22 16.1731C22 16.183 22 16.193 22 16.2029C22 16.2128 22 16.2228 22 16.2327C22 16.2426 22 16.2525 22 16.2624C22 16.2723 22 16.2822 22 16.2921C22 16.302 22 16.3118 22 16.3217C22 16.3316 22 16.3414 22 16.3513C22 16.3611 22 16.371 22 16.3808C22 16.3907 22 16.4005 22 16.4103C22 16.4201 22 16.4299 22 16.4397C22 16.4495 22 16.4593 22 16.4691C22 16.4789 22 16.4887 22 16.4984C22 16.5082 22 16.518 22 16.5277C22 16.5375 22 16.5472 22 16.5569C22 16.5667 22 16.5764 22 16.5861C22 16.5958 22 16.6055 22 16.6152C22 16.6249 22 16.6346 22 16.6443C22 16.654 22 16.6636 22 16.6733C22 16.683 22 16.6926 22 16.7023C22 16.7119 22 16.7216 22 16.7312C22 16.7408 22 16.7504 22 16.76C22 16.7697 22 16.7793 22 16.7889C22 16.7985 22 16.808 22 16.8176C22 16.8272 22 16.8368 22 16.8463C22 16.8559 22 16.8654 22 16.875C22 16.8845 22 16.894 22 16.9036C22 16.9131 22 16.9226 22 16.9321C22 16.9416 22 16.9511 22 16.9606C22 16.9701 22 16.9796 22 16.9891C22 16.9985 22 17.008 22 17.0175C22 17.0269 22 17.0364 22 17.0458C22 17.0552 22 17.0647 22 17.0741C22 17.0835 22 17.0929 22 17.1023C22 17.1117 22 17.1211 22 17.1305C22 17.1399 22 17.1492 22 17.1586C22 17.168 22 17.1773 22 17.1867C22 17.196 22 17.2054 22 17.2147C22 17.224 22 17.2333 22 17.2427C22 17.252 22 17.2613 22 17.2706C22 17.2799 22 17.2891 22 17.2984C22 17.3077 22 17.317 22 17.3262C22 17.3355 22 17.3447 22 17.354C22 17.3632 22 17.3724 22 17.3817C22 17.3909 22 17.4001 22 17.4093C22 17.4185 22 17.4277 22 17.4369C22 17.4461 22 17.4552 22 17.4644C22 17.4736 22 17.4827 22 17.4919C22 17.501 22 17.5102 22 17.5193C22 17.5284 22 17.5375 22 17.5467C22 17.5558 22 17.5649 22 17.574C22 17.5831 22 17.5921 22 17.6012C22 17.6103 22 17.6194 22 17.6284C22 17.6375 22 17.6465 22 17.6556C22 17.6646 22 17.6736 22 17.6827C22 17.6917 22 17.7007 22 17.7097C22 17.7187 22 17.7277 22 17.7367C22 17.7456 22 17.7546 22 17.7636C22 17.7726 22 17.7815 22 17.7905C22 17.7994 22 17.8083 22 17.8173C22 17.8262 22 17.8351 22 17.844C22 17.8529 22 17.8618 22 17.8707C22 17.8796 22 17.8885 22 17.8974C22 17.9062 22 17.9151 22 17.9239C22 17.9328 22 17.9416 22 17.9505C22 17.9593 22 17.9681 22 17.9769C22 17.9858 22 17.9946 22 18.0034C22 18.0121 22 18.0209 22 18.0297C22 18.0385 22 18.0473 22 18.056C22 18.0648 22 18.0735 22 18.0823C22 18.091 22 18.0997 22 18.1084C22 18.1172 22 18.1259 22 18.1346C22 18.1433 22 18.152 22 18.1606C22 18.1693 22 18.178 22 18.1867C22 18.1953 22 18.204 22 18.2126C22 18.2213 22 18.2299 22 18.2385C22 18.2471 22 18.2558 22 18.2644C22 18.273 22 18.2816 22 18.2901C22 18.2987 22 18.3073 22 18.3159C22 18.3244 22 18.333 22 18.3415C22 18.3501 22 18.3586 22 18.3671C22 18.3757 22 18.3842 22 18.3927C22 18.4012 22 18.4097 22 18.4182C22 18.4267 22 18.4352 22 18.4436C22 18.4521 22 18.4605 22 18.469C22 18.4774 22 18.4859 22 18.4943C22 18.5027 22 18.5112 22 18.5196C22 18.528 22 18.5364 22 18.5448C22 18.5532 22 18.5615 22 18.5699C22 18.5783 22 18.5866 22 18.595C22 18.6033 22 18.6117 22 18.62C22 18.6283 22 18.6367 22 18.645C22 18.6533 22 18.6616 22 18.6699C22 18.6782 22 18.6865 22 18.6947C22 18.703 22 18.7113 22 18.7195C22 18.7278 22 18.736 22 18.7442C22 18.7525 22 18.7607 22 18.7689C22 18.7771 22 18.7853 22 18.7935C22 18.8017 22 18.8099 22 18.818C22 18.8262 22 18.8344 22 18.8425C22 18.8507 22 18.8588 22 18.8669C22 18.8751 22 18.8832 22 18.8913C22 18.8994 22 18.9075 22 18.9156C22 18.9237 22 18.9318 22 18.9399C22 18.9479 22 18.956 22 18.964C22 18.9721 22 18.9801 22 18.9882C22 18.9962 22 19.0042 22 19.0122C22 19.0202 22 19.0282 22 19.0362C22 19.0442 22 19.0522 22 19.0601C22 19.0681 22 19.0761 22 19.084C22 19.092 22 19.0999 22 19.1078C22 19.1158 22 19.1237 22 19.1316C22 19.1395 22 19.1474 22 19.1553C22 19.1632 22 19.171 22 19.1789C22 19.1868 22 19.1946 22 19.2025C22 19.2103 22 19.2182 22 19.226C22 19.2338 22 19.2416 22 19.2494C22 19.2572 22 19.265 22 19.2728C22 19.2806 22 19.2884 22 19.2961C22 19.3039 22 19.3116 22 19.3194C22 19.3271 22 19.3349 22 19.3426C22 19.3503 22 19.358 22 19.3657C22 19.3734 22 19.3811 22 19.3888C22 19.3965 22 19.4041 22 19.4118C22 19.4194 22 19.4271 22 19.4347C22 19.4424 22 19.45 22 19.4576C22 19.4652 22 19.4728 22 19.4804C22 19.488 22 19.4956 22 19.5032C22 19.5108 22 19.5183 22 19.5259C22 19.5334 22 19.541 22 19.5485C22 19.556 22 19.5636 22 19.5711C22 19.5786 22 19.5861 22 19.5936C22 19.6011 22 19.6085 22 19.616C22 19.6235 22 19.6309 22 19.6384C22 19.6458 22 19.6533 22 19.6607C22 19.6681 22 19.6755 22 19.6829C22 19.6903 22 19.6977 22 19.7051C22 19.7125 22 19.7199 22 19.7272C22 19.7346 22 19.7419 22 19.7493C22 19.7566 22 19.7639 22 19.7713C22 19.7786 22 19.7859 22 19.7932C22 19.8005 22 19.8078 22 19.815C22 19.8223 22 19.8296 22 19.8368C22 19.8441 22 19.8513 22 19.8586C22 19.8658 22 19.873 22 19.8802C22 19.8874 22 19.8946 22 19.9018C22 19.909 22 19.9162 22 19.9234C22 19.9305 22 19.9377 22 19.9448C22 19.952 22 19.9591 22 19.9662C22 19.9734 22 19.9805 22 19.9876C22 19.9947 22 20.0018 22 20.0088C22 20.0159 22 20.023 22 20.0301C22 20.0371 22 20.0442 22 20.0512C22 20.0582 22 20.0653 22 20.0723C22 20.0793 22 20.0863 22 20.0933C22 20.1003 22 20.1072 22 20.1142C22 20.1212 22 20.1281 22 20.1351C22 20.142 22 20.149 22 20.1559C22 20.1628 22 20.1697 22 20.1766C22 20.1835 22 20.1904 22 20.1973C22 20.2042 22 20.2111 22 20.2179C22 20.2248 22 20.2316 22 20.2385C22 20.2453 22 20.2521 22 20.2589C22 20.2658 22 20.2726 22 20.2794C22 20.2861 22 20.2929 22 20.2997C22 20.3065 22 20.3132 22 20.32C22 20.3267 22 20.3335 22 20.3402C22 20.3469 22 20.3536 22 20.3603C22 20.367 22 20.3737 22 20.3804C22 20.3871 22 20.3937 22 20.4004C22 20.4071 22 20.4137 22 20.4203C22 20.427 22 20.4336 22 20.4402C22 20.4468 22 20.4534 22 20.46C22 20.4666 22 20.4732 22 20.4797C22 20.4863 22 20.4929 22 20.4994C22 20.5059 22 20.5125 22 20.519C22 20.5255 22 20.532 22 20.5385C22 20.545 22 20.5515 22 20.558C22 20.5645 22 20.5709 22 20.5774C22 20.5838 22 20.5903 22 20.5967C22 20.6031 22 20.6095 22 20.616C22 20.6224 22 20.6288 22 20.6351C22 20.6415 22 20.6479 22 20.6543C22 20.6606 22 20.667 22 20.6733C22 20.6796 22 20.686 22 20.6923C22 20.6986 22 20.7049 22 20.7112C22 20.7175 22 20.7238 22 20.73C22 20.7363 22 20.7425 22 20.7488C22 20.755 22 20.7613 22 20.7675C22 20.7737 22 20.7799 22 20.7861C22 20.7923 22 20.7985 22 20.8047C22 20.8109 22 20.817 22 20.8232C22 20.8293 22 20.8355 22 20.8416C22 20.8477 22 20.8538 22 20.8599C22 20.866 22 20.8721 22 20.8782C22 20.8843 22 20.8904 22 20.8964C22 20.9025 22 20.9085 22 20.9146C22 20.9206 22 20.9266 22 20.9326C22 20.9386 22 20.9446 22 20.9506C22 20.9566 22 20.9626 22 20.9686C22 20.9745 22 20.9805 22 20.9864C22 20.9923 22 20.9983 22 21.0042C22 21.0101 22 21.016 22 21.0219C22 21.0278 22 21.0337 22 21.0395C22 21.0454 22 21.0513 22 21.0571C22 21.063 22 21.0688 22 21.0746C22 21.0804 22 21.0862 22 21.092C22 21.0978 22 21.1036 22 21.1094C22 21.1152 22 21.1209 22 21.1267C22 21.1324 22 21.1382 22 21.1439C22 21.1496 22 21.1553 22 21.161C22 21.1667 22 21.1724 22 21.1781C22 21.1838 22 21.1894 22 21.1951C22 21.2007 22 21.2064 22 21.212C22 21.2176 22 21.2233 22 21.2289C22 21.2345 22 21.2401 22 21.2456C22 21.2512 22 21.2568 22 21.2624C22 21.2679 22 21.2735 22 21.279C22 21.2845 22 21.29 22 21.2955C22 21.3011 22 21.3065 22 21.312C22 21.3175 22 21.323 22 21.3284C22 21.3339 22 21.3394 22 21.3448C22 21.3502 22 21.3556 22 21.3611C22 21.3665 22 21.3719 22 21.3772C22 21.3826 22 21.388 22 21.3934C22 21.3987 22 21.4041 22 21.4094C22 21.4148 22 21.4201 22 21.4254C22 21.4307 22 21.436 22 21.4413C22 21.4466 22 21.4519 22 21.4571C22 21.4624 22 21.4676 22 21.4729C22 21.4781 22 21.4833 22 21.4885C22 21.4938 22 21.499 22 21.5041C22 21.5093 22 21.5145 22 21.5197C22 21.5248 22 21.53 22 21.5351C22 21.5403 22 21.5454 22 21.5505C22 21.5556 22 21.5607 22 21.5658C22 21.5709 22 21.576 22 21.581C22 21.5861 22 21.5912 22 21.5962C22 21.6012 22 21.6063 22 21.6113C22 21.6163 22 21.6213 22 21.6263C22 21.6313 22 21.6363 22 21.6412C22 21.6462 22 21.6511 22 21.6561C22 21.661 22 21.6659 22 21.6709C22 21.6758 22 21.6807 22 21.6856C22 21.6904 22 21.6953 22 21.7002C22 21.7051 22 21.7099 22 21.7147C22 21.7196 22 21.7244 22 21.7292C22 21.734 22 21.7388 22 21.7436C22 21.7484 22 21.7532 22 21.7579C22 21.7627 22 21.7675 22 21.7722C22 21.7769 22 21.7817 22 21.7864C22 21.7911 22 21.7958 22 21.8005C22 21.8052 22 21.8098 22 21.8145C22 21.8191 22 21.8238 22 21.8284C22 21.8331 22 21.8377 22 21.8423C22 21.8469 22 21.8515 22 21.8561C22 21.8607 22 21.8652 22 21.8698C22 21.8744 22 21.8789 22 21.8834C22 21.888 22 21.8925 22 21.897C22 21.9015 22 21.906 22 21.9105C22 21.915 22 21.9194 22 21.9239C22 21.9283 22 21.9328 22 21.9372C22 21.9416 22 21.9461 22 21.9505C22 21.9549 22 21.9593 22 21.9636C22 21.968 22 21.9724 22 21.9767C22 21.9811 22 21.9854 22 21.9897C22 21.9941 22 21.9984 22 22.0027C22 22.007 22 22.0113 22 22.0155C22 22.0198 22 22.0241 22 22.0283C22 22.0326 22 22.0368 22 22.041C22 22.0452 22 22.0495 22 22.0537C22 22.0578 22 22.062 22 22.0662C22 22.0704 22 22.0745 22 22.0787C22 22.0828 22 22.0869 22 22.0911C22 22.0952 22 22.0993 22 22.1034C22 22.1075 22 22.1115 22 22.1156C22 22.1197 22 22.1237 22 22.1278C22 22.1318 22 22.1358 22 22.1398C22 22.1438 22 22.1478 22 22.1518C22 22.1558 22 22.1598 22 22.1637C22 22.1677 22 22.1716 22 22.1756C22 22.1795 22 22.1834 22 22.1873C22 22.1912 22 22.1951 22 22.199C22 22.2029 22 22.2068 22 22.2106C22 22.2145 22 22.2183 22 22.2221C22 22.226 22 22.2298 22 22.2336C22 22.2374 22 22.2412 22 22.2449C22 22.2487 22 22.2525 22 22.2562C22 22.2599 22 22.2637 22 22.2674C22 22.2711 22 22.2748 22 22.2785C22 22.2822 22 22.2859 22 22.2896C22 22.2932 22 22.2969 22 22.3005C22 22.3041 22 22.3078 22 22.3114C22 22.315 22 22.3186 22 22.3222C22 22.3258 22 22.3293 22 22.3329C22 22.3365 22 22.34 22 22.3435C22 22.3471 22 22.3506 22 22.3541C22 22.3576 22 22.3611 22 22.3645C22 22.368 22 22.3715 22 22.3749C22 22.3784 22 22.3818 22 22.3852C22 22.3887 22 22.3921 22 22.3955C22 22.3989 22 22.4022 22 22.4056C22 22.409 22 22.4123 22 22.4157C22 22.419 22 22.4223 22 22.4257C22 22.429 22 22.4323 22 22.4356C22 22.4388 22 22.4421 22 22.4454C22 22.4486 22 22.4519 22 22.4551C22 22.4583 22 22.4616 22 22.4648C22 22.468 22 22.4712 22 22.4743C22 22.4775 22 22.4807 22 22.4838C22 22.487 22 22.4901 22 22.4932C22 22.4963 22 22.4994 22 22.5025C22 22.5056 22 22.5087 22 22.5118C22 22.5148 22 22.5179 22 22.5209C22 22.524 22 22.527 22 22.53C22 22.533 22 22.536 22 22.539C22 22.542 22 22.545 22 22.5479C22 22.5509 22 22.5538 22 22.5567C22 22.5597 22 22.5626 22 22.5655C22 22.5684 22 22.5713 22 22.5741C22 22.577 22 22.5799 22 22.5827C22 22.5855 22 22.5884 22 22.5912C22 22.594 22 22.5968 22 22.5996C22 22.6024 22 22.6052 22 22.6079C22 22.6107 22 22.6134 22 22.6161C22 22.6189 22 22.6216 22 22.6243C22 22.627 22 22.6297 22 22.6324C22 22.635 22 22.6377 22 22.6404C22 22.643 22 22.6456 22 22.6483C22 22.6509 22 22.6535 22 22.6561C22 22.6587 22 22.6612 22 22.6638C22 22.6664 22 22.6689 22 22.6714C22 22.674 22 22.6765 22 22.679C22 22.6815 22 22.684 22 22.6865C22 22.689 22 22.6914 22 22.6939C22 22.6963 22 22.6988 22 22.7012C22 22.7036 22 22.706 22 22.7084C22 22.7108 22 22.7132 22 22.7155C22 22.7179 22 22.7202 22 22.7226C22 22.7249 22 22.7272 22 22.7295C22 22.7318 22 22.7341 22 22.7364C22 22.7387 22 22.741 22 22.7432C22 22.7455 22 22.7477 22 22.7499C22 22.7521 22 22.7543 22 22.7565C22 22.7587 22 22.7609 22 22.7631C22 22.7652 22 22.7674 22 22.7695C22 22.7716 22 22.7738 22 22.7759C22 22.778 22 22.7801 22 22.7821C22 22.7842 22 22.7863 22 22.7883C22 22.7904 22 22.7924 22 22.7944C22 22.7965 22 22.7985 22 22.8004C22 22.8024 22 22.8044 22 22.8064C22 22.8083 22 22.8103 22 22.8122C22 22.8141 22 22.8161 22 22.818C22 22.8199 22 22.8218 22 22.8236C22 22.8255 22 22.8274 22 22.8292C22 22.8311 22 22.8329 22 22.8347C22 22.8365 22 22.8383 22 22.8401C22 22.8419 22 22.8437 22 22.8454C22 22.8472 22 22.8489 22 22.8506C22 22.8524 22 22.8541 22 22.8558C22 22.8575 22 22.8592 22 22.8608C22 22.8625 22 22.8642 22 22.8658C22 22.8674 22 22.8691 22 22.8707C22 22.8723 22 22.8739 22 22.8755C22 22.877 22 22.8786 22 22.8802C22 22.8817 22 22.8832 22 22.8848C22 22.8863 22 22.8878 22 22.8893C22 22.8908 22 22.8923 22 22.8937C22 22.8952 22 22.8966 22 22.8981C22 22.8995 22 22.9009 22 22.9023C22 22.9037 22 22.9051 22 22.9065C22 22.9079 22 22.9092 22 22.9106C22 22.9119 22 22.9132 22 22.9145C22 22.9159 22 22.9172 22 22.9184C22 22.9197 22 22.921 22 22.9222C22 22.9235 22 22.9247 22 22.926C22 22.9272 22 22.9284 22 22.9296C22 22.9308 22 22.932 22 22.9331C22 22.9343 22 22.9354 22 22.9366C22 22.9377 22 22.9388 22 22.9399C22 22.941 22 22.9421 22 22.9432C22 22.9443 22 22.9453 22 22.9464C22 22.9474 22 22.9485 22 22.9495C22 22.9505 22 22.9515 22 22.9525C22 22.9535 22 22.9544 22 22.9554C22 22.9563 22 22.9573 22 22.9582C22 22.9591 22 22.96 22 22.9609C22 22.9618 22 22.9627 22 22.9636C22 22.9644 22 22.9653 22 22.9661C22 22.9669 22 22.9678 22 22.9686C22 22.9694 22 22.9701 22 22.9709C22 22.9717 22 22.9724 22 22.9732C22 22.9739 22 22.9747 22 22.9754C22 22.9761 22 22.9768 22 22.9775C22 22.9781 22 22.9788 22 22.9794C22 22.9801 22 22.9807 22 22.9813C22 22.982 22 22.9826 22 22.9832C22 22.9838 22 22.9843 22 22.9849C22 22.9854 22 22.986 22 22.9865C22 22.987 22 22.9875 22 22.988C22 22.9885 22 22.989 22 22.9895C22 22.99 22 22.9904 22 22.9908C22 22.9913 22 22.9917 22 22.9921C22 22.9925 22 22.9929 22 22.9933C22 22.9936 22 22.994 22 22.9943C22 22.9947 22 22.995 22 22.9953C22 22.9956 22 22.9959 22 22.9962C22 22.9965 22 22.9968 22 22.997C22 22.9973 22 22.9975 22 22.9977C22 22.9979 22 22.9981 22 22.9983C22 22.9985 22 22.9987 22 22.9988C22 22.999 22 22.9991 22 22.9992C22 22.9994 22 22.9995 22 22.9996C22 22.9997 22 22.9997 22 22.9998C22 22.9999 22 22.9999 22 23C22 23 22 23 23 23ZM24 13.0583C24 9.62629 21.8064 7.53922 19.2564 6.9748C16.772 6.42487 13.8569 7.30453 12.341 9.7777L14.0461 10.8229C15.0463 9.19109 17.0345 8.53139 18.8242 8.92753C20.5484 9.30918 22 10.6536 22 13.0583H24ZM14.1935 10.3003V8.31195H12.1935V10.3003H14.1935ZM13.1935 7.31195H9V9.31195H13.1935V7.31195Z" fill="black"/>
</svg>
