<svg width="28" height="28" viewBox="0 0 28 28" fill="none" xmlns="http://www.w3.org/2000/svg">
<path fill-rule="evenodd" clip-rule="evenodd" d="M24.6393 5.25964L26.2899 5.4524L25.5479 6.93933C25.1862 7.66445 24.824 8.38955 24.4614 9.11467C24.4185 9.26825 24.3429 9.40288 24.2312 9.57818C24.1845 9.65142 24.025 9.88442 24.0175 9.89559C23.9754 9.95876 23.9442 10.0086 23.9218 10.0485V12.8351C23.9218 19.9657 17.021 24.497 10.5041 24.497C9.17052 24.497 8.15734 24.4331 6.99718 24.18C5.08793 23.7632 3.66707 22.9351 3.01689 21.4877L2.3475 19.9975L3.97428 19.8478C5.44593 19.7125 6.72189 19.4321 7.70178 19.0567C5.01165 18.6241 3.50412 17.4426 3.50412 15.2237V14.057H4.67079C4.92712 14.057 5.15826 14.0363 5.36489 13.998C3.34592 12.7909 2.33468 10.8544 2.33468 8.16844C2.33446 8.05396 2.33446 8.05395 2.33377 7.93154C2.32618 6.5777 2.3989 5.85429 2.76953 4.93102C3.00705 4.33931 3.35039 3.79152 3.81247 3.28961L4.69285 2.33333L5.54879 3.31154C8.36952 6.53521 11.1579 8.49094 14.0048 8.7275C14.017 5.75289 16.265 3.50177 19.2549 3.50177C20.6489 3.50177 21.9132 4.03084 22.9068 4.98485C23.4506 5.09659 24.0282 5.18827 24.6393 5.25964ZM22.06 7.18902L21.7024 7.10803L21.4554 6.83699C20.8582 6.18164 20.1085 5.8351 19.2549 5.8351C17.5482 5.8351 16.338 7.05122 16.338 8.75177C16.338 9.02969 16.3309 9.20432 16.2963 9.43384C16.1581 10.3497 15.6445 11.0851 14.588 11.0851C11.0903 11.0851 7.93484 9.21132 4.85779 6.01099C4.69916 6.49321 4.66186 6.98888 4.66707 7.91848C4.66777 8.04281 4.66777 8.04281 4.66801 8.16844C4.66801 10.5578 5.63601 11.8648 7.92797 12.5932L8.74123 12.8518V13.7051C8.74123 14.7399 7.76085 15.7139 6.32638 16.1503C6.98395 16.6493 8.32876 16.9184 10.5045 16.9184H11.6711V18.0851C11.6711 19.7567 9.75048 21.0654 6.84913 21.7489C7.79533 22.0387 9.05519 22.1636 10.5041 22.1636C15.8876 22.1636 21.5885 18.4203 21.5885 12.8351V9.91843C21.5885 9.57569 21.6879 9.27818 21.8529 8.96885C21.9175 8.84791 21.9886 8.7326 22.0762 8.60109C22.0927 8.57634 22.154 8.48663 22.2026 8.41492L22.295 8.23C22.445 7.93035 22.5946 7.63071 22.7443 7.33106C22.5117 7.28698 22.2836 7.23964 22.06 7.18902Z" fill="black"/>
</svg>
