<svg width="220" height="217" viewBox="0 0 220 217" fill="none" xmlns="http://www.w3.org/2000/svg">
<path d="M189 30L219 60V0L189 30Z" fill="#E0BC5D"/>
<path d="M189 30L159 0V60L189 30Z" fill="#CEB167"/>
<path d="M60 187L30 217H90L60 187Z" fill="#EBD498"/>
<path d="M29.9999 217L59.9999 187L-0.00012207 187L29.9999 217Z" fill="#CBB786"/>
<path d="M188.908 33.0001L159 63.0922L219 62.9078L188.908 33.0001Z" fill="#7A693D"/>
<path d="M204 111L159 66V156L204 111Z" fill="#C7B994"/>
<path d="M94 128.5L157 191V66L94 128.5Z" fill="#9E906A"/>
<path d="M189.092 92.9999L219 62.9078L159 63.0922L189.092 92.9999Z" fill="#9E906A"/>
<path d="M92.5 217V129L181 217H92.5Z" fill="#D5C497"/>
</svg>
