<svg width="874" height="855" viewBox="0 0 874 855" fill="none" xmlns="http://www.w3.org/2000/svg">
<g opacity="0.4">
<path d="M125.237 124.885L10.3523 239.77V10L125.237 124.885Z" stroke="#E0BC5D" stroke-width="8"/>
<path d="M125 124.885L239.885 10L239.885 239.77L125 124.885Z" stroke="#CEB167" stroke-width="8"/>
<path d="M624.885 736L739.77 850.885H510L624.885 736Z" stroke="#EBD498" stroke-width="8"/>
<path d="M748.885 848.885L634 734L863.77 734L748.885 848.885Z" stroke="#CBB786" stroke-width="8"/>
<path d="M125.59 136.374L240.122 251.611L10.353 250.905L125.59 136.374Z" stroke="#7A693D" stroke-width="8"/>
<path d="M73.9997 437.327L246.327 265L246.327 609.654L73.9997 437.327Z" stroke="#C7B994" stroke-width="8"/>
<path d="M495.258 504.343L254 743.687V265L495.258 504.343Z" stroke="#9E906A" stroke-width="8"/>
<path d="M124.884 374.237L10.3528 259L240.121 259.706L124.884 374.237Z" stroke="#9E906A" stroke-width="8"/>
<path d="M496.91 850.995V514L158 850.995H496.91Z" stroke="#D4C497" stroke-width="8"/>
</g>
</svg>
